<svg class="main-svg" xmlns="http://www.w3.org/2000/svg" xmlns:xlink="http://www.w3.org/1999/xlink" width="600" height="400" style=""><rect x="0" y="0" width="600" height="400" style="fill: rgb(255, 255, 255); fill-opacity: 1;"/><defs id="defs-2d7113"><g class="clips"><clipPath id="clip2d7113xyplot" class="plotclip"><rect width="565.4593175853018" height="342.9133858267717"/></clipPath><clipPath class="axesclip" id="clip2d7113x"><rect x="30.603674540682416" y="0" width="565.4593175853018" height="400"/></clipPath><clipPath class="axesclip" id="clip2d7113y"><rect x="0" y="23.543307086614167" width="600" height="342.9133858267717"/></clipPath><clipPath class="axesclip" id="clip2d7113xy"><rect x="30.603674540682416" y="23.543307086614167" width="565.4593175853018" height="342.9133858267717"/></clipPath></g><g class="gradients"/><g class="patterns"/></defs><g class="bglayer"/><g class="layer-below"><g class="imagelayer"/><g class="shapelayer"/></g><g class="cartesianlayer"><g class="subplot xy"><g class="layer-subplot"><g class="shapelayer"/><g class="imagelayer"/></g><g class="gridlayer"><g class="x"><path class="xgrid crisp" transform="translate(46.60367454068242,0)" d="M0,23.543307086614167v342.9133858267717" style="stroke: rgb(0, 0, 0); stroke-opacity: 0.1; stroke-width: 0.5px;"/><path class="xgrid crisp" transform="translate(165.15367454068243,0)" d="M0,23.543307086614167v342.9133858267717" style="stroke: rgb(0, 0, 0); stroke-opacity: 0.1; stroke-width: 0.5px;"/><path class="xgrid crisp" transform="translate(283.6936745406824,0)" d="M0,23.543307086614167v342.9133858267717" style="stroke: rgb(0, 0, 0); stroke-opacity: 0.1; stroke-width: 0.5px;"/><path class="xgrid crisp" transform="translate(402.2436745406824,0)" d="M0,23.543307086614167v342.9133858267717" style="stroke: rgb(0, 0, 0); stroke-opacity: 0.1; stroke-width: 0.5px;"/><path class="xgrid crisp" transform="translate(520.7836745406825,0)" d="M0,23.543307086614167v342.9133858267717" style="stroke: rgb(0, 0, 0); stroke-opacity: 0.1; stroke-width: 0.5px;"/></g><g class="y"><path class="ygrid crisp" transform="translate(0,272.5933070866142)" d="M30.603674540682416,0h565.4593175853018" style="stroke: rgb(0, 0, 0); stroke-opacity: 0.1; stroke-width: 0.5px;"/><path class="ygrid crisp" transform="translate(0,179.08330708661416)" d="M30.603674540682416,0h565.4593175853018" style="stroke: rgb(0, 0, 0); stroke-opacity: 0.1; stroke-width: 0.5px;"/><path class="ygrid crisp" transform="translate(0,85.57330708661416)" d="M30.603674540682416,0h565.4593175853018" style="stroke: rgb(0, 0, 0); stroke-opacity: 0.1; stroke-width: 0.5px;"/></g></g><g class="zerolinelayer"/><path class="xlines-below"/><path class="ylines-below"/><g class="overlines-below"/><g class="xaxislayer-below"/><g class="yaxislayer-below"/><g class="overaxes-below"/><g class="plot" transform="translate(30.603674540682416,23.543307086614167)" clip-path="url(#clip2d7113xyplot)"><g class="scatterlayer mlayer"><g class="trace scatter trace4c2858" style="stroke-miterlimit: 2;"><g class="fills"><g><path class="js-fill" d="M16,333.21L26.89,315.73L37.78,270.45L48.66,211.89L59.55,158.21L70.44,122.4L81.32,117.17L92.21,137.3L103.1,149.02L113.98,151.74L124.87,116.12L135.76,77.71L146.64,60.94L157.53,78.73L168.42,113.56L179.31,138.68L190.19,145.98L211.97,118.83L222.85,121.39L233.74,126.5L244.63,127.08L255.51,104.96L266.4,78.29L277.29,65.28L288.17,84.56L299.06,122.59L309.95,152.38L320.83,160.49L331.72,142.9L342.61,110.14L353.49,97.43L375.27,113.21L386.15,103.94L397.04,87L407.93,80.13L418.81,99.37L429.7,132.06L440.59,161.96L451.47,168.03L462.36,137.11L473.25,96.73L484.14,76.09L495.02,84.54L505.91,106.17L516.8,114.68L527.68,106.99L538.57,101.83L549.46,108.6L549.46,56.75L538.57,49.79L527.68,55.85L516.8,60.11L505.91,55.96L495.02,33.32L484.14,23.39L473.25,44.08L462.36,83.17L451.47,112.7L440.59,111.41L429.7,83.15L418.81,46.53L407.93,31.09L397.04,36.18L386.15,54.65L375.27,59.94L364.38,50.37L353.49,47.62L342.61,55.71L331.72,86.09L320.83,109.45L309.95,105.48L299.06,74.71L288.17,35.92L277.29,14.52L266.4,26.09L255.51,55.36L244.63,76.55L233.74,77.24L222.85,64.49L211.97,65.18L201.08,77.33L190.19,91.32L179.31,88.53L168.42,57.49L157.53,25.9L146.64,9.71L135.76,25.57L124.87,68.38L113.98,97.64L103.1,101.49L92.21,81.03L81.32,63.47L70.44,67.35L59.55,96.36L48.66,147.24L37.78,228.83L26.89,301.82L16,333.21Z" style="fill: rgb(0, 154, 250); fill-opacity: 0.15; stroke-width: 0;"/></g></g><g class="errorbars"/><g class="lines"><path class="js-line" d="M16,333.21L26.89,301.82L37.78,228.83L48.66,147.24L59.55,96.36L70.44,67.35L81.32,63.47L92.21,81.03L103.1,101.49L113.98,97.64L124.87,68.38L135.76,25.57L146.64,9.71L157.53,25.9L168.42,57.49L179.31,88.53L190.19,91.32L201.08,77.33L211.97,65.18L222.85,64.49L233.74,77.24L244.63,76.55L255.51,55.36L266.4,26.09L277.29,14.52L288.17,35.92L299.06,74.71L309.95,105.48L320.83,109.45L331.72,86.09L342.61,55.71L353.49,47.62L364.38,50.37L375.27,59.94L386.15,54.65L397.04,36.18L407.93,31.09L418.81,46.53L429.7,83.15L440.59,111.41L451.47,112.7L462.36,83.17L473.25,44.08L484.14,23.39L495.02,33.32L505.91,55.96L516.8,60.11L527.68,55.85L538.57,49.79L549.46,56.75" style="vector-effect: non-scaling-stroke; fill: none; stroke: rgb(0, 154, 250); stroke-opacity: 1; stroke-width: 1px; opacity: 1;"/></g><g class="points"/><g class="text"/></g><g class="trace scatter trace0da050" style="stroke-miterlimit: 2;"><g class="fills"/><g class="errorbars"/><g class="lines"><path class="js-line" d="M16,333.21L26.89,315.73L37.78,270.45L48.66,211.89L59.55,158.21L70.44,122.4L81.32,117.17L92.21,137.3L103.1,149.02L113.98,151.74L124.87,116.12L135.76,77.71L146.64,60.94L157.53,78.73L168.42,113.56L179.31,138.68L190.19,145.98L211.97,118.83L222.85,121.39L233.74,126.5L244.63,127.08L255.51,104.96L266.4,78.29L277.29,65.28L288.17,84.56L299.06,122.59L309.95,152.38L320.83,160.49L331.72,142.9L342.61,110.14L353.49,97.43L375.27,113.21L386.15,103.94L397.04,87L407.93,80.13L418.81,99.37L429.7,132.06L440.59,161.96L451.47,168.03L462.36,137.11L473.25,96.73L484.14,76.09L495.02,84.54L505.91,106.17L516.8,114.68L527.68,106.99L538.57,101.83L549.46,108.6" style="vector-effect: non-scaling-stroke; fill: none; stroke: rgb(0, 154, 250); stroke-opacity: 1; stroke-width: 1px; opacity: 1;"/></g><g class="points"/><g class="text"/></g><g class="trace scatter tracebadc64" style="stroke-miterlimit: 2; opacity: 1;"><g class="fills"/><g class="errorbars"/><g class="lines"><path class="js-line" d="M16,161.5L549.46,161.5" style="vector-effect: non-scaling-stroke; fill: none; stroke: rgb(0, 0, 0); stroke-opacity: 1; stroke-width: 1px; opacity: 1;"/></g><g class="points"/><g class="text"/></g><g class="trace scatter trace58cda3" style="stroke-miterlimit: 2; opacity: 1;"><g class="fills"/><g class="errorbars"/><g class="lines"><path class="js-line" d="M16,34.29L549.46,34.29" style="vector-effect: non-scaling-stroke; fill: none; stroke: rgb(0, 0, 0); stroke-opacity: 1; stroke-width: 1px; opacity: 1;"/></g><g class="points"/><g class="text"/></g><g class="trace scatter trace9d5e9b" style="stroke-miterlimit: 2; opacity: 1;"><g class="fills"/><g class="errorbars"/><g class="lines"><path class="js-line" d="M16,87.53L549.46,87.53" style="vector-effect: non-scaling-stroke; fill: none; stroke: rgb(255, 0, 0); stroke-opacity: 1; stroke-width: 1px; opacity: 1;"/></g><g class="points"/><g class="text"/></g></g></g><g class="overplot"/><path class="xlines-above crisp" d="M29.603674540682416,366.95669291338584H596.0629921259842" style="fill: none; stroke-width: 1px; stroke: rgb(0, 0, 0); stroke-opacity: 1;"/><path class="ylines-above crisp" d="M30.103674540682416,23.543307086614167V366.45669291338584" style="fill: none; stroke-width: 1px; stroke: rgb(0, 0, 0); stroke-opacity: 1;"/><g class="overlines-above"/><g class="xaxislayer-above"><path class="xtick ticks crisp" d="M0,366.45669291338584v-5" transform="translate(46.60367454068242,0)" style="stroke: rgb(0, 0, 0); stroke-opacity: 1; stroke-width: 1px;"/><path class="xtick ticks crisp" d="M0,366.45669291338584v-5" transform="translate(165.15367454068243,0)" style="stroke: rgb(0, 0, 0); stroke-opacity: 1; stroke-width: 1px;"/><path class="xtick ticks crisp" d="M0,366.45669291338584v-5" transform="translate(283.6936745406824,0)" style="stroke: rgb(0, 0, 0); stroke-opacity: 1; stroke-width: 1px;"/><path class="xtick ticks crisp" d="M0,366.45669291338584v-5" transform="translate(402.2436745406824,0)" style="stroke: rgb(0, 0, 0); stroke-opacity: 1; stroke-width: 1px;"/><path class="xtick ticks crisp" d="M0,366.45669291338584v-5" transform="translate(520.7836745406825,0)" style="stroke: rgb(0, 0, 0); stroke-opacity: 1; stroke-width: 1px;"/><g class="xtick"><text text-anchor="middle" x="0" y="380.6566929133858" transform="translate(46.60367454068242,0)" style="font-family: sans-serif; font-size: 11px; fill: rgb(0, 0, 0); fill-opacity: 1; white-space: pre; opacity: 1;">0</text></g><g class="xtick"><text text-anchor="middle" x="0" y="380.6566929133858" style="font-family: sans-serif; font-size: 11px; fill: rgb(0, 0, 0); fill-opacity: 1; white-space: pre; opacity: 1;" transform="translate(165.15367454068243,0)">200</text></g><g class="xtick"><text text-anchor="middle" x="0" y="380.6566929133858" style="font-family: sans-serif; font-size: 11px; fill: rgb(0, 0, 0); fill-opacity: 1; white-space: pre; opacity: 1;" transform="translate(283.6936745406824,0)">400</text></g><g class="xtick"><text text-anchor="middle" x="0" y="380.6566929133858" style="font-family: sans-serif; font-size: 11px; fill: rgb(0, 0, 0); fill-opacity: 1; white-space: pre; opacity: 1;" transform="translate(402.2436745406824,0)">600</text></g><g class="xtick"><text text-anchor="middle" x="0" y="380.6566929133858" style="font-family: sans-serif; font-size: 11px; fill: rgb(0, 0, 0); fill-opacity: 1; white-space: pre; opacity: 1;" transform="translate(520.7836745406825,0)">800</text></g></g><g class="yaxislayer-above"><path class="ytick ticks crisp" d="M30.603674540682416,0h5" transform="translate(0,272.5933070866142)" style="stroke: rgb(0, 0, 0); stroke-opacity: 1; stroke-width: 1px;"/><path class="ytick ticks crisp" d="M30.603674540682416,0h5" transform="translate(0,179.08330708661416)" style="stroke: rgb(0, 0, 0); stroke-opacity: 1; stroke-width: 1px;"/><path class="ytick ticks crisp" d="M30.603674540682416,0h5" transform="translate(0,85.57330708661416)" style="stroke: rgb(0, 0, 0); stroke-opacity: 1; stroke-width: 1px;"/><g class="ytick"><text text-anchor="end" x="27.403674540682417" y="3.8499999999999996" transform="translate(0,366.10330708661417)" style="font-family: sans-serif; font-size: 11px; fill: rgb(0, 0, 0); fill-opacity: 1; white-space: pre; opacity: 1;">0.0</text></g><g class="ytick"><text text-anchor="end" x="27.403674540682417" y="3.8499999999999996" style="font-family: sans-serif; font-size: 11px; fill: rgb(0, 0, 0); fill-opacity: 1; white-space: pre; opacity: 1;" transform="translate(0,272.5933070866142)">0.1</text></g><g class="ytick"><text text-anchor="end" x="27.403674540682417" y="3.8499999999999996" style="font-family: sans-serif; font-size: 11px; fill: rgb(0, 0, 0); fill-opacity: 1; white-space: pre; opacity: 1;" transform="translate(0,179.08330708661416)">0.2</text></g><g class="ytick"><text text-anchor="end" x="27.403674540682417" y="3.8499999999999996" style="font-family: sans-serif; font-size: 11px; fill: rgb(0, 0, 0); fill-opacity: 1; white-space: pre; opacity: 1;" transform="translate(0,85.57330708661416)">0.3</text></g></g><g class="overaxes-above"/></g></g><g class="polarlayer"/><g class="ternarylayer"/><g class="geolayer"/><g class="funnelarealayer"/><g class="pielayer"/><g class="iciclelayer"/><g class="treemaplayer"/><g class="sunburstlayer"/><g class="glimages"/><defs id="topdefs-2d7113"><g class="clips"/><clipPath id="legend2d7113"><rect width="140" height="86" x="1" y="1"/></clipPath></defs><g class="layer-above"><g class="imagelayer"/><g class="shapelayer"/></g><g class="infolayer"><g class="legend" pointer-events="all" transform="translate(458,266.79999999999995)"><rect class="bg" shape-rendering="crispEdges" width="141" height="87" x="0.5" y="0.5" style="stroke: rgb(0, 0, 0); stroke-opacity: 1; fill: rgb(255, 255, 255); fill-opacity: 1; stroke-width: 1px;"/><g class="scrollbox" transform="" clip-path="url(#legend2d7113)"><g class="groups"><g class="traces" transform="translate(1,15.5)" style="opacity: 1;"><text class="legendtext" text-anchor="start" x="40" y="4.29" style="font-family: sans-serif; font-size: 11px; fill: rgb(0, 0, 0); fill-opacity: 1; white-space: pre;">Simulation I_t band</text><g class="layers"><g class="legendfill"><path class="js-fill" d="M5,-2h30v6h-30z" style="stroke-width: 0; fill: rgb(0, 154, 250); fill-opacity: 0.15;"/></g><g class="legendlines"><path class="js-line" d="M5,-2h30" style="fill: none; stroke: rgb(0, 154, 250); stroke-opacity: 1; stroke-width: 1px;"/></g><g class="legendsymbols"><g class="legendpoints"/></g></g><rect class="legendtoggle" x="0" y="-9.5" width="134.1731719970703" height="19" style="fill: rgb(0, 0, 0); fill-opacity: 0;"/></g><g class="traces" transform="translate(1,34.5)" style="opacity: 1;"><text class="legendtext" text-anchor="start" x="40" y="4.29" style="font-family: sans-serif; font-size: 11px; fill: rgb(0, 0, 0); fill-opacity: 1; white-space: pre;">psi_l</text><g class="layers" style="opacity: 1;"><g class="legendfill"/><g class="legendlines"><path class="js-line" d="M5,0h30" style="fill: none; stroke: rgb(0, 0, 0); stroke-opacity: 1; stroke-width: 1px;"/></g><g class="legendsymbols"><g class="legendpoints"/></g></g><rect class="legendtoggle" x="0" y="-9.5" width="134.1731719970703" height="19" style="fill: rgb(0, 0, 0); fill-opacity: 0;"/></g><g class="traces" transform="translate(1,53.5)" style="opacity: 1;"><text class="legendtext" text-anchor="start" x="40" y="4.29" style="font-family: sans-serif; font-size: 11px; fill: rgb(0, 0, 0); fill-opacity: 1; white-space: pre;">psi_u</text><g class="layers" style="opacity: 1;"><g class="legendfill"/><g class="legendlines"><path class="js-line" d="M5,0h30" style="fill: none; stroke: rgb(0, 0, 0); stroke-opacity: 1; stroke-width: 1px;"/></g><g class="legendsymbols"><g class="legendpoints"/></g></g><rect class="legendtoggle" x="0" y="-9.5" width="134.1731719970703" height="19" style="fill: rgb(0, 0, 0); fill-opacity: 0;"/></g><g class="traces" transform="translate(1,72.5)" style="opacity: 1;"><text class="legendtext" text-anchor="start" x="40" y="4.29" style="font-family: sans-serif; font-size: 11px; fill: rgb(0, 0, 0); fill-opacity: 1; white-space: pre;">lim It</text><g class="layers" style="opacity: 1;"><g class="legendfill"/><g class="legendlines"><path class="js-line" d="M5,0h30" style="fill: none; stroke: rgb(255, 0, 0); stroke-opacity: 1; stroke-width: 1px;"/></g><g class="legendsymbols"><g class="legendpoints"/></g></g><rect class="legendtoggle" x="0" y="-9.5" width="134.1731719970703" height="19" style="fill: rgb(0, 0, 0); fill-opacity: 0;"/></g></g></g><rect class="scrollbar" rx="20" ry="3" width="0" height="0" x="0" y="0" style="fill: rgb(128, 139, 164); fill-opacity: 1;"/></g><g class="g-gtitle"/><g class="g-xtitle"/><g class="g-ytitle"/></g></svg>