<svg class="main-svg" xmlns="http://www.w3.org/2000/svg" xmlns:xlink="http://www.w3.org/1999/xlink" width="675" height="200" style=""><rect x="0" y="0" width="675" height="200" style="fill: rgb(255, 255, 255); fill-opacity: 1;"/><defs id="defs-1ae2bc"><g class="clips"><clipPath id="clip1ae2bcxyplot" class="plotclip"><rect width="631.5704286964129" height="144.8118985126859"/></clipPath><clipPath class="axesclip" id="clip1ae2bcx"><rect x="39.492563429571305" y="0" width="631.5704286964129" height="200"/></clipPath><clipPath class="axesclip" id="clip1ae2bcy"><rect x="0" y="23.14960629921261" width="675" height="144.8118985126859"/></clipPath><clipPath class="axesclip" id="clip1ae2bcxy"><rect x="39.492563429571305" y="23.14960629921261" width="631.5704286964129" height="144.8118985126859"/></clipPath></g><g class="gradients"/><g class="patterns"/></defs><g class="bglayer"/><g class="layer-below"><g class="imagelayer"/><g class="shapelayer"/></g><g class="cartesianlayer"><g class="subplot xy"><g class="layer-subplot"><g class="shapelayer"/><g class="imagelayer"/></g><g class="gridlayer"><g class="x"><path class="xgrid crisp" transform="translate(86.1525634295713,0)" d="M0,23.14960629921261v144.8118985126859" style="stroke: rgb(0, 0, 0); stroke-opacity: 0.1; stroke-width: 0.5px;"/><path class="xgrid crisp" transform="translate(261.7325634295713,0)" d="M0,23.14960629921261v144.8118985126859" style="stroke: rgb(0, 0, 0); stroke-opacity: 0.1; stroke-width: 0.5px;"/><path class="xgrid crisp" transform="translate(437.3125634295713,0)" d="M0,23.14960629921261v144.8118985126859" style="stroke: rgb(0, 0, 0); stroke-opacity: 0.1; stroke-width: 0.5px;"/><path class="xgrid crisp" transform="translate(615.7725634295713,0)" d="M0,23.14960629921261v144.8118985126859" style="stroke: rgb(0, 0, 0); stroke-opacity: 0.1; stroke-width: 0.5px;"/></g><g class="y"><path class="ygrid crisp" transform="translate(0,163.85960629921263)" d="M39.492563429571305,0h631.5704286964129" style="stroke: rgb(0, 0, 0); stroke-opacity: 0.1; stroke-width: 0.5px;"/><path class="ygrid crisp" transform="translate(0,125.6396062992126)" d="M39.492563429571305,0h631.5704286964129" style="stroke: rgb(0, 0, 0); stroke-opacity: 0.1; stroke-width: 0.5px;"/><path class="ygrid crisp" transform="translate(0,87.40960629921261)" d="M39.492563429571305,0h631.5704286964129" style="stroke: rgb(0, 0, 0); stroke-opacity: 0.1; stroke-width: 0.5px;"/><path class="ygrid crisp" transform="translate(0,49.18960629921261)" d="M39.492563429571305,0h631.5704286964129" style="stroke: rgb(0, 0, 0); stroke-opacity: 0.1; stroke-width: 0.5px;"/></g></g><g class="zerolinelayer"/><path class="xlines-below"/><path class="ylines-below"/><g class="overlines-below"/><g class="xaxislayer-below"/><g class="yaxislayer-below"/><g class="overaxes-below"/><g class="plot" transform="translate(39.492563429571305,23.14960629921261)" clip-path="url(#clip1ae2bcxyplot)"><g class="scatterlayer mlayer"><g class="trace scatter tracefd2486" style="stroke-miterlimit: 2; opacity: 1;"><g class="fills"/><g class="errorbars"/><g class="lines"><path class="js-line" d="M17.87,140.6L26.51,140.14L29.39,140.56L32.27,138.88L35.14,139.03L38.02,140.71L40.9,131.2L43.78,140.71L46.66,132.88L49.54,140.71L52.41,106.01L55.29,86.4L58.17,118.12L61.05,93.54L63.93,99.58L66.81,112.31L69.69,117.97L72.56,107.04L75.44,104.09L78.32,99.62L81.2,91.44L84.08,88.54L86.96,92.78L89.83,102.18L92.71,95.68L95.59,95.15L98.47,100.73L101.35,93.58L104.23,103.79L107.1,101.42L109.98,86.78L115.74,56.39L118.62,49.39L121.5,28.87L124.37,23.13L127.25,29.82L130.13,18.93L133.01,21.8L135.89,26.54L138.77,30.82L141.64,36.93L144.52,42.86L147.4,140.71L150.28,45.8L153.16,53.79L156.04,60.86L158.91,64.38L161.79,78.25L164.67,65.33L167.55,70.49L170.43,77.38L176.18,80.55L179.06,82.92L181.94,79.32L184.82,83.41L187.7,88.19L190.58,89.38L193.45,91.25L196.33,91.14L199.21,95.07L202.09,101.34L204.97,96.07L207.85,97.37L210.72,96.64L213.6,102.83L216.48,98.21L219.36,99.7L222.24,103.14L225.12,102.26L228,110.06L230.87,103.41L233.75,93.96L236.63,90.14L239.51,76.5L242.39,83.95L245.27,81.24L248.14,82.27L251.02,87.85L253.9,76.38L256.78,84.1L259.66,65.87L262.54,71.6L265.41,60.37L268.29,73.55L271.17,71.68L274.05,53.03L276.93,60.02L279.81,51.04L282.68,49.28L285.56,52.38L288.44,69.27L291.32,57.38L294.2,63.38L297.08,72.41L299.95,61.21L302.83,54.4L305.71,32.96L308.59,53.48L311.47,44.54L314.35,26.84L317.22,21.57L320.1,20.92L322.98,4.1L328.74,53.98L331.62,50.35L334.49,62.62L337.37,60.63L340.25,63.84L343.13,55.17L346.01,50.16L348.89,48.59L351.76,46.22L354.64,47.1L357.52,42.74L360.4,40.87L363.28,41.48L366.16,40.76L369.03,51.96L371.91,50.2L374.79,42.36L377.67,47.25L383.43,41.52L386.31,40.26L389.18,46.83L392.06,45.57L394.94,43.78L397.82,46.8L403.58,39.34L406.45,42.63L409.33,47.1L412.21,42.86L415.09,40.83L417.97,39.91L420.85,37.85L423.72,61.24L429.48,49.09L432.36,57.15L438.12,44.35L440.99,49.43L443.87,45.15L446.75,49.78L449.63,57.92L452.51,57.31L458.26,40.37L461.14,41.86L464.02,40.53L466.9,45.57L469.78,52.19L472.66,51.54L475.53,47.67L478.41,38.77L484.17,40.53L487.05,38.5L489.93,43.32L492.8,38.08L495.68,41.41L498.56,35.56L504.32,40.03L507.2,47.06L510.07,59.49L512.95,63.5L515.83,59.22L518.71,51.08L521.59,44.77L524.47,40.37L527.34,45.11L530.22,54.9L533.1,59.18L535.98,54.82L538.86,49.55L541.74,47.29L544.62,53.6L547.49,56.39L550.37,63.19L553.25,59.94L556.13,54.9L559.01,56.12L561.89,54.98L564.76,57L567.64,59.87L570.52,67.9L576.28,77.95L579.16,76.42L584.91,64.49L587.79,63.27L590.67,68.32L593.55,64.57L599.3,52.72L602.18,52.3L605.06,61.86L607.94,52.3L610.82,58.95L613.7,60.86" style="vector-effect: non-scaling-stroke; fill: none; stroke: rgb(255, 0, 0); stroke-opacity: 1; stroke-width: 2px; opacity: 1;"/></g><g class="points"/><g class="text"/></g><g class="trace scatter traceee000b" style="stroke-miterlimit: 2; opacity: 1;"><g class="fills"/><g class="errorbars"/><g class="lines"><path class="js-line" d="M527.34,45.11L530.22,53.28L533.1,53.09L535.98,53.47L538.86,52.06L550.37,48.41L553.25,47.78L564.76,46.3L567.64,46.13L593.55,45.73L596.43,45.73L613.7,45.73" style="vector-effect: non-scaling-stroke; fill: none; stroke: rgb(0, 128, 0); stroke-opacity: 1; stroke-width: 2px; opacity: 1;"/></g><g class="points"/><g class="text"/></g><g class="trace scatter trace71a843" style="stroke-miterlimit: 2; opacity: 1;"><g class="fills"/><g class="errorbars"/><g class="lines"><path class="js-line" d="M527.34,45.11L553.25,52.53L556.13,53.45L607.94,70.75L610.82,71.71" style="vector-effect: non-scaling-stroke; fill: none; stroke: rgb(0, 0, 255); stroke-opacity: 1; stroke-width: 2px; opacity: 1;"/></g><g class="points"/><g class="text"/></g><g class="trace scatter trace972ea5" style="stroke-miterlimit: 2;"><g class="fills"><g><path class="js-fill" d="M527.34,45.11L538.86,48.96L541.74,49.91L599.3,71.43L602.18,72.83L610.82,75.67L610.82,67.76L607.94,66.75L590.67,61.98L587.79,60.97L576.28,57.65L573.4,56.69L541.74,48.07L538.86,47.3L527.34,45.11Z" style="fill: rgb(0, 154, 250); fill-opacity: 0.15; stroke-width: 0;"/></g></g><g class="errorbars"/><g class="lines"><path class="js-line" d="M527.34,45.11L538.86,47.3L541.74,48.07L573.4,56.69L576.28,57.65L587.79,60.97L590.67,61.98L607.94,66.75L610.82,67.76" style="vector-effect: non-scaling-stroke; fill: none; stroke: rgb(0, 154, 250); stroke-opacity: 1; stroke-width: 1px; opacity: 1;"/></g><g class="points"/><g class="text"/></g><g class="trace scatter trace201dbd" style="stroke-miterlimit: 2;"><g class="fills"/><g class="errorbars"/><g class="lines"><path class="js-line" d="M527.34,45.11L538.86,48.96L541.74,49.91L599.3,71.43L602.18,72.83L610.82,75.67" style="vector-effect: non-scaling-stroke; fill: none; stroke: rgb(0, 154, 250); stroke-opacity: 1; stroke-width: 1px; opacity: 1;"/></g><g class="points"/><g class="text"/></g></g></g><g class="overplot"/><path class="xlines-above crisp" d="M38.492563429571305,168.46150481189852H671.0629921259842" style="fill: none; stroke-width: 1px; stroke: rgb(0, 0, 0); stroke-opacity: 1;"/><path class="ylines-above crisp" d="M38.992563429571305,23.14960629921261V167.96150481189852" style="fill: none; stroke-width: 1px; stroke: rgb(0, 0, 0); stroke-opacity: 1;"/><g class="overlines-above"/><g class="xaxislayer-above"><path class="xtick ticks crisp" d="M0,167.96150481189852v-5" transform="translate(86.1525634295713,0)" style="stroke: rgb(0, 0, 0); stroke-opacity: 1; stroke-width: 1px;"/><path class="xtick ticks crisp" d="M0,167.96150481189852v-5" transform="translate(261.7325634295713,0)" style="stroke: rgb(0, 0, 0); stroke-opacity: 1; stroke-width: 1px;"/><path class="xtick ticks crisp" d="M0,167.96150481189852v-5" transform="translate(437.3125634295713,0)" style="stroke: rgb(0, 0, 0); stroke-opacity: 1; stroke-width: 1px;"/><path class="xtick ticks crisp" d="M0,167.96150481189852v-5" transform="translate(615.7725634295713,0)" style="stroke: rgb(0, 0, 0); stroke-opacity: 1; stroke-width: 1px;"/><g class="xtick"><text text-anchor="middle" x="0" y="182.1615048118985" transform="translate(86.1525634295713,0)" style="font-family: sans-serif; font-size: 11px; fill: rgb(0, 0, 0); fill-opacity: 1; white-space: pre; opacity: 1;">2020-03-01</text></g><g class="xtick"><text text-anchor="middle" x="0" y="182.1615048118985" style="font-family: sans-serif; font-size: 11px; fill: rgb(0, 0, 0); fill-opacity: 1; white-space: pre; opacity: 1;" transform="translate(261.7325634295713,0)">2020-05-01</text></g><g class="xtick"><text text-anchor="middle" x="0" y="182.1615048118985" style="font-family: sans-serif; font-size: 11px; fill: rgb(0, 0, 0); fill-opacity: 1; white-space: pre; opacity: 1;" transform="translate(437.3125634295713,0)">2020-07-01</text></g><g class="xtick"><text text-anchor="middle" x="0" y="182.1615048118985" style="font-family: sans-serif; font-size: 11px; fill: rgb(0, 0, 0); fill-opacity: 1; white-space: pre; opacity: 1;" transform="translate(615.7725634295713,0)">2020-09-01</text></g></g><g class="yaxislayer-above"><path class="ytick ticks crisp" d="M39.492563429571305,0h5" transform="translate(0,163.85960629921263)" style="stroke: rgb(0, 0, 0); stroke-opacity: 1; stroke-width: 1px;"/><path class="ytick ticks crisp" d="M39.492563429571305,0h5" transform="translate(0,125.6396062992126)" style="stroke: rgb(0, 0, 0); stroke-opacity: 1; stroke-width: 1px;"/><path class="ytick ticks crisp" d="M39.492563429571305,0h5" transform="translate(0,87.40960629921261)" style="stroke: rgb(0, 0, 0); stroke-opacity: 1; stroke-width: 1px;"/><path class="ytick ticks crisp" d="M39.492563429571305,0h5" transform="translate(0,49.18960629921261)" style="stroke: rgb(0, 0, 0); stroke-opacity: 1; stroke-width: 1px;"/><g class="ytick"><text text-anchor="end" x="36.2925634295713" y="3.8499999999999996" transform="translate(0,163.85960629921263)" style="font-family: sans-serif; font-size: 11px; fill: rgb(0, 0, 0); fill-opacity: 1; white-space: pre; opacity: 1;">0</text></g><g class="ytick"><text text-anchor="end" x="36.2925634295713" y="3.8499999999999996" style="font-family: sans-serif; font-size: 11px; fill: rgb(0, 0, 0); fill-opacity: 1; white-space: pre; opacity: 1;" transform="translate(0,125.6396062992126)">1000</text></g><g class="ytick"><text text-anchor="end" x="36.2925634295713" y="3.8499999999999996" style="font-family: sans-serif; font-size: 11px; fill: rgb(0, 0, 0); fill-opacity: 1; white-space: pre; opacity: 1;" transform="translate(0,87.40960629921261)">2000</text></g><g class="ytick"><text text-anchor="end" x="36.2925634295713" y="3.8499999999999996" style="font-family: sans-serif; font-size: 11px; fill: rgb(0, 0, 0); fill-opacity: 1; white-space: pre; opacity: 1;" transform="translate(0,49.18960629921261)">3000</text></g></g><g class="overaxes-above"/></g></g><g class="polarlayer"/><g class="ternarylayer"/><g class="geolayer"/><g class="funnelarealayer"/><g class="pielayer"/><g class="iciclelayer"/><g class="treemaplayer"/><g class="sunburstlayer"/><g class="glimages"/><defs id="topdefs-1ae2bc"><g class="clips"/><clipPath id="legend1ae2bc"><rect width="166" height="86" x="1" y="1"/></clipPath></defs><g class="layer-above"><g class="imagelayer"/><g class="shapelayer"/></g><g class="infolayer"><g class="legend" pointer-events="all" transform="translate(47.25000000000001,20)"><rect class="bg" shape-rendering="crispEdges" width="167" height="87" x="0.5" y="0.5" style="stroke: rgb(0, 0, 0); stroke-opacity: 1; fill: rgb(255, 255, 255); fill-opacity: 1; stroke-width: 1px;"/><g class="scrollbox" transform="" clip-path="url(#legend1ae2bc)"><g class="groups"><g class="traces" transform="translate(1,15.5)" style="opacity: 1;"><text class="legendtext" text-anchor="start" x="40" y="4.29" style="font-family: sans-serif; font-size: 11px; fill: rgb(0, 0, 0); fill-opacity: 1; white-space: pre;">Number infected per day</text><g class="layers" style="opacity: 1;"><g class="legendfill"/><g class="legendlines"><path class="js-line" d="M5,0h30" style="fill: none; stroke: rgb(255, 0, 0); stroke-opacity: 1; stroke-width: 2px;"/></g><g class="legendsymbols"><g class="legendpoints"/></g></g><rect class="legendtoggle" x="0" y="-9.5" width="160.78531646728516" height="19" style="fill: rgb(0, 0, 0); fill-opacity: 0;"/></g><g class="traces" transform="translate(1,34.5)" style="opacity: 1;"><text class="legendtext" text-anchor="start" x="40" y="4.29" style="font-family: sans-serif; font-size: 11px; fill: rgb(0, 0, 0); fill-opacity: 1; white-space: pre;">MLP forecast</text><g class="layers" style="opacity: 1;"><g class="legendfill"/><g class="legendlines"><path class="js-line" d="M5,0h30" style="fill: none; stroke: rgb(0, 128, 0); stroke-opacity: 1; stroke-width: 2px;"/></g><g class="legendsymbols"><g class="legendpoints"/></g></g><rect class="legendtoggle" x="0" y="-9.5" width="160.78531646728516" height="19" style="fill: rgb(0, 0, 0); fill-opacity: 0;"/></g><g class="traces" transform="translate(1,53.5)" style="opacity: 1;"><text class="legendtext" text-anchor="start" x="40" y="4.29" style="font-family: sans-serif; font-size: 11px; fill: rgb(0, 0, 0); fill-opacity: 1; white-space: pre;">Median forecast Itô-SIS</text><g class="layers" style="opacity: 1;"><g class="legendfill"/><g class="legendlines"><path class="js-line" d="M5,0h30" style="fill: none; stroke: rgb(0, 0, 255); stroke-opacity: 1; stroke-width: 2px;"/></g><g class="legendsymbols"><g class="legendpoints"/></g></g><rect class="legendtoggle" x="0" y="-9.5" width="160.78531646728516" height="19" style="fill: rgb(0, 0, 0); fill-opacity: 0;"/></g><g class="traces" transform="translate(1,72.5)" style="opacity: 1;"><text class="legendtext" text-anchor="start" x="40" y="4.29" style="font-family: sans-serif; font-size: 11px; fill: rgb(0, 0, 0); fill-opacity: 1; white-space: pre;">forecast Itô-SIS band</text><g class="layers"><g class="legendfill"><path class="js-fill" d="M5,-2h30v6h-30z" style="stroke-width: 0; fill: rgb(0, 154, 250); fill-opacity: 0.15;"/></g><g class="legendlines"><path class="js-line" d="M5,-2h30" style="fill: none; stroke: rgb(0, 154, 250); stroke-opacity: 1; stroke-width: 1px;"/></g><g class="legendsymbols"><g class="legendpoints"/></g></g><rect class="legendtoggle" x="0" y="-9.5" width="160.78531646728516" height="19" style="fill: rgb(0, 0, 0); fill-opacity: 0;"/></g></g></g><rect class="scrollbar" rx="20" ry="3" width="0" height="0" x="0" y="0" style="fill: rgb(128, 139, 164); fill-opacity: 1;"/></g><g class="g-gtitle"/><g class="g-xtitle"/><g class="g-ytitle"/></g></svg>