<svg class="main-svg" xmlns="http://www.w3.org/2000/svg" xmlns:xlink="http://www.w3.org/1999/xlink" width="400" height="190" style=""><rect x="0" y="0" width="400" height="190" style="fill: rgb(255, 255, 255); fill-opacity: 1;"/><defs id="defs-89dacc"><g class="clips"><clipPath id="clip89daccxyplot" class="plotclip"><rect width="356.57042869641293" height="135.01174195330847"/></clipPath><clipPath class="axesclip" id="clip89daccx"><rect x="39.492563429571305" y="0" width="356.57042869641293" height="190"/></clipPath><clipPath class="axesclip" id="clip89daccy"><rect x="0" y="23.108164111065065" width="400" height="135.01174195330847"/></clipPath><clipPath class="axesclip" id="clip89daccxy"><rect x="39.492563429571305" y="23.108164111065065" width="356.57042869641293" height="135.01174195330847"/></clipPath></g><g class="gradients"/><g class="patterns"/></defs><g class="bglayer"/><g class="layer-below"><g class="imagelayer"/><g class="shapelayer"/></g><g class="cartesianlayer"><g class="subplot xy"><g class="layer-subplot"><g class="shapelayer"/><g class="imagelayer"/></g><g class="gridlayer"><g class="x"><path class="xgrid crisp" transform="translate(40.73256342957131,0)" d="M0,23.108164111065065v135.01174195330847" style="stroke: rgb(0, 0, 0); stroke-opacity: 0.1; stroke-width: 0.5px;"/><path class="xgrid crisp" transform="translate(129.2525634295713,0)" d="M0,23.108164111065065v135.01174195330847" style="stroke: rgb(0, 0, 0); stroke-opacity: 0.1; stroke-width: 0.5px;"/><path class="xgrid crisp" transform="translate(217.7825634295713,0)" d="M0,23.108164111065065v135.01174195330847" style="stroke: rgb(0, 0, 0); stroke-opacity: 0.1; stroke-width: 0.5px;"/><path class="xgrid crisp" transform="translate(306.3025634295713,0)" d="M0,23.108164111065065v135.01174195330847" style="stroke: rgb(0, 0, 0); stroke-opacity: 0.1; stroke-width: 0.5px;"/><path class="xgrid crisp" transform="translate(394.8225634295713,0)" d="M0,23.108164111065065v135.01174195330847" style="stroke: rgb(0, 0, 0); stroke-opacity: 0.1; stroke-width: 0.5px;"/></g><g class="y"><path class="ygrid crisp" transform="translate(0,134.00816411106507)" d="M39.492563429571305,0h356.57042869641293" style="stroke: rgb(0, 0, 0); stroke-opacity: 0.1; stroke-width: 0.5px;"/><path class="ygrid crisp" transform="translate(0,108.32816411106506)" d="M39.492563429571305,0h356.57042869641293" style="stroke: rgb(0, 0, 0); stroke-opacity: 0.1; stroke-width: 0.5px;"/><path class="ygrid crisp" transform="translate(0,82.65816411106506)" d="M39.492563429571305,0h356.57042869641293" style="stroke: rgb(0, 0, 0); stroke-opacity: 0.1; stroke-width: 0.5px;"/><path class="ygrid crisp" transform="translate(0,56.97816411106506)" d="M39.492563429571305,0h356.57042869641293" style="stroke: rgb(0, 0, 0); stroke-opacity: 0.1; stroke-width: 0.5px;"/><path class="ygrid crisp" transform="translate(0,31.298164111065063)" d="M39.492563429571305,0h356.57042869641293" style="stroke: rgb(0, 0, 0); stroke-opacity: 0.1; stroke-width: 0.5px;"/></g></g><g class="zerolinelayer"/><path class="xlines-below"/><path class="ylines-below"/><g class="overlines-below"/><g class="xaxislayer-below"/><g class="yaxislayer-below"/><g class="overaxes-below"/><g class="plot" transform="translate(39.492563429571305,23.108164111065065)" clip-path="url(#clip89daccxyplot)"><g class="scatterlayer mlayer"><g class="trace scatter tracea3ad12" style="stroke-miterlimit: 2; opacity: 1;"><g class="fills"/><g class="errorbars"/><g class="lines"><path class="js-line" d="M10.09,3.82L18.94,27.45L27.8,69.18L36.65,82.66L45.5,68.28L54.35,40.93L63.21,19.74L72.06,4.98L80.91,20.9L89.76,53.77L98.61,68.15L107.47,53.51L116.32,35.79L125.17,28.22L134.02,49.4L142.88,58.77L151.73,81.63L160.58,70.72L169.43,53.77L178.29,57.88L187.14,54.02L195.99,60.83L204.84,70.46L213.69,97.42L222.55,116.81L231.4,131.19L240.25,126.05L249.1,103.46L257.96,86L266.81,81.89L275.66,98.83L284.51,86.25L293.37,65.71L302.22,46.45L311.07,45.04L319.92,77.14L328.77,45.04L337.63,67.38L346.48,73.8" style="vector-effect: non-scaling-stroke; fill: none; stroke: rgb(255, 0, 0); stroke-opacity: 1; stroke-width: 2px; opacity: 1;"/></g><g class="points"/><g class="text"/></g><g class="trace scatter tracebf42d0" style="stroke-miterlimit: 2; opacity: 1;"><g class="fills"/><g class="errorbars"/><g class="lines"><path class="js-line" d="M80.91,20.9L89.76,48.33L98.61,47.71L107.47,48.95L116.32,44.23L134.02,37.91L142.88,34.62L160.58,29.86L169.43,28.07L187.14,25.7L195.99,24.88L222.55,23.59L231.4,23.38L293.37,22.97L302.22,22.96L346.48,22.96" style="vector-effect: non-scaling-stroke; fill: none; stroke: rgb(0, 128, 0); stroke-opacity: 1; stroke-width: 2px; opacity: 1;"/></g><g class="points"/><g class="text"/></g><g class="trace scatter trace816848" style="stroke-miterlimit: 2; opacity: 1;"><g class="fills"/><g class="errorbars"/><g class="lines"><path class="js-line" d="M80.91,20.9L125.17,34.07L134.02,36.92L187.14,55.14L195.99,58.31L293.37,94.02L302.22,97.28L337.63,110.24" style="vector-effect: non-scaling-stroke; fill: none; stroke: rgb(0, 0, 255); stroke-opacity: 1; stroke-width: 2px; opacity: 1;"/></g><g class="points"/><g class="text"/></g><g class="trace scatter trace0fce7e" style="stroke-miterlimit: 2;"><g class="fills"><g><path class="js-fill" d="M80.91,20.9L98.61,28L107.47,30.99L187.14,60.78L195.99,64.55L213.69,72.02L222.55,75.91L231.4,80.56L240.25,82.83L302.22,107.92L311.07,112.21L328.77,117.97L337.63,121.87L337.63,96.29L328.77,93.8L319.92,91.22L311.07,87.58L302.22,85.84L293.37,82.76L284.51,79.15L266.81,74.06L257.96,72.08L240.25,65.95L231.4,63.6L222.55,59.9L213.69,56.32L187.14,49.2L178.29,46.45L134.02,33.36L125.17,30.57L98.61,24.01L89.76,22.03L80.91,20.9Z" style="fill: rgb(0, 154, 250); fill-opacity: 0.15; stroke-width: 0;"/></g></g><g class="errorbars"/><g class="lines"><path class="js-line" d="M80.91,20.9L89.76,22.03L98.61,24.01L125.17,30.57L134.02,33.36L178.29,46.45L187.14,49.2L213.69,56.32L222.55,59.9L231.4,63.6L240.25,65.95L257.96,72.08L266.81,74.06L284.51,79.15L293.37,82.76L302.22,85.84L311.07,87.58L319.92,91.22L328.77,93.8L337.63,96.29" style="vector-effect: non-scaling-stroke; fill: none; stroke: rgb(0, 154, 250); stroke-opacity: 1; stroke-width: 1px; opacity: 1;"/></g><g class="points"/><g class="text"/></g><g class="trace scatter trace06a898" style="stroke-miterlimit: 2;"><g class="fills"/><g class="errorbars"/><g class="lines"><path class="js-line" d="M80.91,20.9L98.61,28L107.47,30.99L187.14,60.78L195.99,64.55L213.69,72.02L222.55,75.91L231.4,80.56L240.25,82.83L302.22,107.92L311.07,112.21L328.77,117.97L337.63,121.87" style="vector-effect: non-scaling-stroke; fill: none; stroke: rgb(0, 154, 250); stroke-opacity: 1; stroke-width: 1px; opacity: 1;"/></g><g class="points"/><g class="text"/></g></g></g><g class="overplot"/><path class="xlines-above crisp" d="M38.492563429571305,158.61990606437354H396.06299212598424" style="fill: none; stroke-width: 1px; stroke: rgb(0, 0, 0); stroke-opacity: 1;"/><path class="ylines-above crisp" d="M38.992563429571305,23.108164111065065V158.11990606437354" style="fill: none; stroke-width: 1px; stroke: rgb(0, 0, 0); stroke-opacity: 1;"/><g class="overlines-above"/><g class="xaxislayer-above"><path class="xtick ticks crisp" d="M0,158.11990606437354v-5" transform="translate(40.73256342957131,0)" style="stroke: rgb(0, 0, 0); stroke-opacity: 1; stroke-width: 1px;"/><path class="xtick ticks crisp" d="M0,158.11990606437354v-5" transform="translate(129.2525634295713,0)" style="stroke: rgb(0, 0, 0); stroke-opacity: 1; stroke-width: 1px;"/><path class="xtick ticks crisp" d="M0,158.11990606437354v-5" transform="translate(217.7825634295713,0)" style="stroke: rgb(0, 0, 0); stroke-opacity: 1; stroke-width: 1px;"/><path class="xtick ticks crisp" d="M0,158.11990606437354v-5" transform="translate(306.3025634295713,0)" style="stroke: rgb(0, 0, 0); stroke-opacity: 1; stroke-width: 1px;"/><path class="xtick ticks crisp" d="M0,158.11990606437354v-5" transform="translate(394.8225634295713,0)" style="stroke: rgb(0, 0, 0); stroke-opacity: 1; stroke-width: 1px;"/><g class="xtick"><text text-anchor="middle" x="0" y="172.31990606437353" transform="translate(40.73256342957131,0)" style="font-family: sans-serif; font-size: 11px; fill: rgb(0, 0, 0); fill-opacity: 1; white-space: pre; opacity: 1;">2020-08-06</text></g><g class="xtick"><text text-anchor="middle" x="0" y="172.31990606437353" style="font-family: sans-serif; font-size: 11px; fill: rgb(0, 0, 0); fill-opacity: 1; white-space: pre; opacity: 1;" transform="translate(129.2525634295713,0)">2020-08-16</text></g><g class="xtick"><text text-anchor="middle" x="0" y="172.31990606437353" style="font-family: sans-serif; font-size: 11px; fill: rgb(0, 0, 0); fill-opacity: 1; white-space: pre; opacity: 1;" transform="translate(217.7825634295713,0)">2020-08-26</text></g><g class="xtick"><text text-anchor="middle" x="0" y="172.31990606437353" style="font-family: sans-serif; font-size: 11px; fill: rgb(0, 0, 0); fill-opacity: 1; white-space: pre; opacity: 1;" transform="translate(306.3025634295713,0)">2020-09-05</text></g><g class="xtick"><text text-anchor="middle" x="0" y="172.31990606437353" style="font-family: sans-serif; font-size: 11px; fill: rgb(0, 0, 0); fill-opacity: 1; white-space: pre; opacity: 0;" transform="translate(394.8225634295713,0)">2020-09-15</text></g></g><g class="yaxislayer-above"><path class="ytick ticks crisp" d="M39.492563429571305,0h5" transform="translate(0,134.00816411106507)" style="stroke: rgb(0, 0, 0); stroke-opacity: 1; stroke-width: 1px;"/><path class="ytick ticks crisp" d="M39.492563429571305,0h5" transform="translate(0,108.32816411106506)" style="stroke: rgb(0, 0, 0); stroke-opacity: 1; stroke-width: 1px;"/><path class="ytick ticks crisp" d="M39.492563429571305,0h5" transform="translate(0,82.65816411106506)" style="stroke: rgb(0, 0, 0); stroke-opacity: 1; stroke-width: 1px;"/><path class="ytick ticks crisp" d="M39.492563429571305,0h5" transform="translate(0,56.97816411106506)" style="stroke: rgb(0, 0, 0); stroke-opacity: 1; stroke-width: 1px;"/><path class="ytick ticks crisp" d="M39.492563429571305,0h5" transform="translate(0,31.298164111065063)" style="stroke: rgb(0, 0, 0); stroke-opacity: 1; stroke-width: 1px;"/><g class="ytick"><text text-anchor="end" x="36.2925634295713" y="3.8499999999999996" transform="translate(0,134.00816411106507)" style="font-family: sans-serif; font-size: 11px; fill: rgb(0, 0, 0); fill-opacity: 1; white-space: pre; opacity: 1;">1800</text></g><g class="ytick"><text text-anchor="end" x="36.2925634295713" y="3.8499999999999996" style="font-family: sans-serif; font-size: 11px; fill: rgb(0, 0, 0); fill-opacity: 1; white-space: pre; opacity: 1;" transform="translate(0,108.32816411106506)">2000</text></g><g class="ytick"><text text-anchor="end" x="36.2925634295713" y="3.8499999999999996" style="font-family: sans-serif; font-size: 11px; fill: rgb(0, 0, 0); fill-opacity: 1; white-space: pre; opacity: 1;" transform="translate(0,82.65816411106506)">2200</text></g><g class="ytick"><text text-anchor="end" x="36.2925634295713" y="3.8499999999999996" style="font-family: sans-serif; font-size: 11px; fill: rgb(0, 0, 0); fill-opacity: 1; white-space: pre; opacity: 1;" transform="translate(0,56.97816411106506)">2400</text></g><g class="ytick"><text text-anchor="end" x="36.2925634295713" y="3.8499999999999996" style="font-family: sans-serif; font-size: 11px; fill: rgb(0, 0, 0); fill-opacity: 1; white-space: pre; opacity: 1;" transform="translate(0,31.298164111065063)">2600</text></g></g><g class="overaxes-above"/></g></g><g class="polarlayer"/><g class="ternarylayer"/><g class="geolayer"/><g class="funnelarealayer"/><g class="pielayer"/><g class="iciclelayer"/><g class="treemaplayer"/><g class="sunburstlayer"/><g class="glimages"/><defs id="topdefs-89dacc"><g class="clips"/></defs><g class="layer-above"><g class="imagelayer"/><g class="shapelayer"/></g><g class="infolayer"><g class="g-gtitle"/><g class="g-xtitle"/><g class="g-ytitle"/></g></svg>