<svg class="main-svg" xmlns="http://www.w3.org/2000/svg" xmlns:xlink="http://www.w3.org/1999/xlink" width="590" height="190" style=""><rect x="0" y="0" width="590" height="190" style="fill: rgb(255, 255, 255); fill-opacity: 1;"/><defs id="defs-364b2f"><g class="clips"><clipPath id="clip364b2fxyplot" class="plotclip"><rect width="381.6729095303765" height="135.01174195330847"/></clipPath><clipPath class="axesclip" id="clip364b2fx"><rect x="27.577857852514196" y="0" width="381.6729095303765" height="190"/></clipPath><clipPath class="axesclip" id="clip364b2fy"><rect x="0" y="23.108164111065065" width="590" height="135.01174195330847"/></clipPath><clipPath class="axesclip" id="clip364b2fxy"><rect x="27.577857852514196" y="23.108164111065065" width="381.6729095303765" height="135.01174195330847"/></clipPath></g><g class="gradients"/><g class="patterns"/></defs><g class="bglayer"/><g class="layer-below"><g class="imagelayer"/><g class="shapelayer"/></g><g class="cartesianlayer"><g class="subplot xy"><g class="layer-subplot"><g class="shapelayer"/><g class="imagelayer"/></g><g class="gridlayer"><g class="x"><path class="xgrid crisp" transform="translate(28.907857852514198,0)" d="M0,23.108164111065065v135.01174195330847" style="stroke: rgb(0, 0, 0); stroke-opacity: 0.1; stroke-width: 0.5px;"/><path class="xgrid crisp" transform="translate(123.6578578525142,0)" d="M0,23.108164111065065v135.01174195330847" style="stroke: rgb(0, 0, 0); stroke-opacity: 0.1; stroke-width: 0.5px;"/><path class="xgrid crisp" transform="translate(218.4178578525142,0)" d="M0,23.108164111065065v135.01174195330847" style="stroke: rgb(0, 0, 0); stroke-opacity: 0.1; stroke-width: 0.5px;"/><path class="xgrid crisp" transform="translate(313.16785785251415,0)" d="M0,23.108164111065065v135.01174195330847" style="stroke: rgb(0, 0, 0); stroke-opacity: 0.1; stroke-width: 0.5px;"/><path class="xgrid crisp" transform="translate(407.9278578525142,0)" d="M0,23.108164111065065v135.01174195330847" style="stroke: rgb(0, 0, 0); stroke-opacity: 0.1; stroke-width: 0.5px;"/></g><g class="y"><path class="ygrid crisp" transform="translate(0,136.25816411106507)" d="M27.577857852514196,0h381.6729095303765" style="stroke: rgb(0, 0, 0); stroke-opacity: 0.1; stroke-width: 0.5px;"/><path class="ygrid crisp" transform="translate(0,112.15816411106506)" d="M27.577857852514196,0h381.6729095303765" style="stroke: rgb(0, 0, 0); stroke-opacity: 0.1; stroke-width: 0.5px;"/><path class="ygrid crisp" transform="translate(0,88.05816411106507)" d="M27.577857852514196,0h381.6729095303765" style="stroke: rgb(0, 0, 0); stroke-opacity: 0.1; stroke-width: 0.5px;"/><path class="ygrid crisp" transform="translate(0,63.94816411106507)" d="M27.577857852514196,0h381.6729095303765" style="stroke: rgb(0, 0, 0); stroke-opacity: 0.1; stroke-width: 0.5px;"/><path class="ygrid crisp" transform="translate(0,39.84816411106506)" d="M27.577857852514196,0h381.6729095303765" style="stroke: rgb(0, 0, 0); stroke-opacity: 0.1; stroke-width: 0.5px;"/></g></g><g class="zerolinelayer"/><path class="xlines-below"/><path class="ylines-below"/><g class="overlines-below"/><g class="xaxislayer-below"/><g class="yaxislayer-below"/><g class="overaxes-below"/><g class="plot" transform="translate(27.577857852514196,23.108164111065065)" clip-path="url(#clip364b2fxyplot)"><g class="scatterlayer mlayer"><g class="trace scatter trace676fa5" style="stroke-miterlimit: 2; opacity: 1;"><g class="fills"/><g class="errorbars"/><g class="lines"><path class="js-line" d="M10.8,3.82L20.28,21.56L29.75,52.89L39.23,63.02L48.7,52.22L58.18,31.68L67.66,15.78L77.13,4.69L86.61,16.64L96.08,41.32L105.56,52.12L115.03,41.13L124.51,27.83L133.98,22.14L143.46,38.05L152.93,45.08L162.41,62.25L171.89,54.05L181.36,41.32L190.84,44.41L200.31,41.52L209.79,46.63L219.26,53.86L228.74,74.1L238.21,88.66L247.69,99.46L257.16,95.6L266.64,78.64L276.12,65.52L285.59,62.44L295.07,75.16L304.54,65.72L314.02,50.29L323.49,35.83L332.97,34.77L342.44,58.87L351.92,34.77L361.4,51.54L370.87,56.36" style="vector-effect: non-scaling-stroke; fill: none; stroke: rgb(255, 0, 0); stroke-opacity: 1; stroke-width: 2px; opacity: 1;"/></g><g class="points"/><g class="text"/></g><g class="trace scatter trace168b97" style="stroke-miterlimit: 2; opacity: 1;"><g class="fills"/><g class="errorbars"/><g class="lines"><path class="js-line" d="M86.61,16.64L96.08,37.25L105.56,36.77L115.03,37.71L124.51,34.16L152.93,26.95L162.41,24.97L181.36,22.03L190.84,21.04L219.26,19.2L228.74,18.9L285.59,18.24L295.07,18.22L370.87,18.2" style="vector-effect: non-scaling-stroke; fill: none; stroke: rgb(0, 128, 0); stroke-opacity: 1; stroke-width: 2px; opacity: 1;"/></g><g class="points"/><g class="text"/></g><g class="trace scatter trace2e4c98" style="stroke-miterlimit: 2; opacity: 1;"><g class="fills"/><g class="errorbars"/><g class="lines"><path class="js-line" d="M86.61,16.64L133.98,35.85L143.46,39.81L257.16,86.96L266.64,90.74L332.97,116.17L342.44,119.64L361.4,126.45" style="vector-effect: non-scaling-stroke; fill: none; stroke: rgb(0, 0, 255); stroke-opacity: 1; stroke-width: 2px; opacity: 1;"/></g><g class="points"/><g class="text"/></g><g class="trace scatter trace1e1585" style="stroke-miterlimit: 2;"><g class="fills"><g><path class="js-fill" d="M86.61,16.64L105.56,25.96L115.03,30.42L143.46,43.03L152.93,47.11L219.26,75.96L228.74,79.67L285.59,102.9L295.07,106.6L332.97,121.39L342.44,124.55L361.4,131.19L361.4,121.27L285.59,92.91L276.12,89.68L247.69,78.06L238.21,73.95L209.79,62.86L200.31,59.45L171.89,47.7L162.41,43.6L105.56,22.19L96.08,18.92L86.61,16.64Z" style="fill: rgb(0, 154, 250); fill-opacity: 0.15; stroke-width: 0;"/></g></g><g class="errorbars"/><g class="lines"><path class="js-line" d="M86.61,16.64L96.08,18.92L105.56,22.19L162.41,43.6L171.89,47.7L200.31,59.45L209.79,62.86L238.21,73.95L247.69,78.06L276.12,89.68L285.59,92.91L361.4,121.27" style="vector-effect: non-scaling-stroke; fill: none; stroke: rgb(0, 154, 250); stroke-opacity: 1; stroke-width: 1px; opacity: 1;"/></g><g class="points"/><g class="text"/></g><g class="trace scatter traced09e9e" style="stroke-miterlimit: 2;"><g class="fills"/><g class="errorbars"/><g class="lines"><path class="js-line" d="M86.61,16.64L105.56,25.96L115.03,30.42L143.46,43.03L152.93,47.11L219.26,75.96L228.74,79.67L285.59,102.9L295.07,106.6L332.97,121.39L342.44,124.55L361.4,131.19" style="vector-effect: non-scaling-stroke; fill: none; stroke: rgb(0, 154, 250); stroke-opacity: 1; stroke-width: 1px; opacity: 1;"/></g><g class="points"/><g class="text"/></g></g></g><g class="overplot"/><path class="xlines-above crisp" d="M26.577857852514196,158.61990606437354H409.2507673828907" style="fill: none; stroke-width: 1px; stroke: rgb(0, 0, 0); stroke-opacity: 1;"/><path class="ylines-above crisp" d="M27.077857852514196,23.108164111065065V158.11990606437354" style="fill: none; stroke-width: 1px; stroke: rgb(0, 0, 0); stroke-opacity: 1;"/><g class="overlines-above"/><g class="xaxislayer-above"><path class="xtick ticks crisp" d="M0,158.11990606437354v-5" transform="translate(28.907857852514198,0)" style="stroke: rgb(0, 0, 0); stroke-opacity: 1; stroke-width: 1px;"/><path class="xtick ticks crisp" d="M0,158.11990606437354v-5" transform="translate(123.6578578525142,0)" style="stroke: rgb(0, 0, 0); stroke-opacity: 1; stroke-width: 1px;"/><path class="xtick ticks crisp" d="M0,158.11990606437354v-5" transform="translate(218.4178578525142,0)" style="stroke: rgb(0, 0, 0); stroke-opacity: 1; stroke-width: 1px;"/><path class="xtick ticks crisp" d="M0,158.11990606437354v-5" transform="translate(313.16785785251415,0)" style="stroke: rgb(0, 0, 0); stroke-opacity: 1; stroke-width: 1px;"/><path class="xtick ticks crisp" d="M0,158.11990606437354v-5" transform="translate(407.9278578525142,0)" style="stroke: rgb(0, 0, 0); stroke-opacity: 1; stroke-width: 1px;"/><g class="xtick"><text text-anchor="middle" x="0" y="172.31990606437353" transform="translate(28.907857852514198,0)" style="font-family: sans-serif; font-size: 11px; fill: rgb(0, 0, 0); fill-opacity: 1; white-space: pre; opacity: 1;">2020-08-06</text></g><g class="xtick"><text text-anchor="middle" x="0" y="172.31990606437353" style="font-family: sans-serif; font-size: 11px; fill: rgb(0, 0, 0); fill-opacity: 1; white-space: pre; opacity: 1;" transform="translate(123.6578578525142,0)">2020-08-16</text></g><g class="xtick"><text text-anchor="middle" x="0" y="172.31990606437353" style="font-family: sans-serif; font-size: 11px; fill: rgb(0, 0, 0); fill-opacity: 1; white-space: pre; opacity: 1;" transform="translate(218.4178578525142,0)">2020-08-26</text></g><g class="xtick"><text text-anchor="middle" x="0" y="172.31990606437353" style="font-family: sans-serif; font-size: 11px; fill: rgb(0, 0, 0); fill-opacity: 1; white-space: pre; opacity: 1;" transform="translate(313.16785785251415,0)">2020-09-05</text></g><g class="xtick"><text text-anchor="middle" x="0" y="172.31990606437353" style="font-family: sans-serif; font-size: 11px; fill: rgb(0, 0, 0); fill-opacity: 1; white-space: pre; opacity: 1;" transform="translate(407.9278578525142,0)">2020-09-15</text></g></g><g class="yaxislayer-above"><path class="ytick ticks crisp" d="M27.577857852514196,0h5" transform="translate(0,136.25816411106507)" style="stroke: rgb(0, 0, 0); stroke-opacity: 1; stroke-width: 1px;"/><path class="ytick ticks crisp" d="M27.577857852514196,0h5" transform="translate(0,112.15816411106506)" style="stroke: rgb(0, 0, 0); stroke-opacity: 1; stroke-width: 1px;"/><path class="ytick ticks crisp" d="M27.577857852514196,0h5" transform="translate(0,88.05816411106507)" style="stroke: rgb(0, 0, 0); stroke-opacity: 1; stroke-width: 1px;"/><path class="ytick ticks crisp" d="M27.577857852514196,0h5" transform="translate(0,63.94816411106507)" style="stroke: rgb(0, 0, 0); stroke-opacity: 1; stroke-width: 1px;"/><path class="ytick ticks crisp" d="M27.577857852514196,0h5" transform="translate(0,39.84816411106506)" style="stroke: rgb(0, 0, 0); stroke-opacity: 1; stroke-width: 1px;"/><g class="ytick"><text text-anchor="end" x="24.377857852514197" y="3.8499999999999996" transform="translate(0,136.25816411106507)" style="font-family: sans-serif; font-size: 11px; fill: rgb(0, 0, 0); fill-opacity: 1; white-space: pre; opacity: 1;">1500</text></g><g class="ytick"><text text-anchor="end" x="24.377857852514197" y="3.8499999999999996" style="font-family: sans-serif; font-size: 11px; fill: rgb(0, 0, 0); fill-opacity: 1; white-space: pre; opacity: 1;" transform="translate(0,112.15816411106506)">1750</text></g><g class="ytick"><text text-anchor="end" x="24.377857852514197" y="3.8499999999999996" style="font-family: sans-serif; font-size: 11px; fill: rgb(0, 0, 0); fill-opacity: 1; white-space: pre; opacity: 1;" transform="translate(0,88.05816411106507)">2000</text></g><g class="ytick"><text text-anchor="end" x="24.377857852514197" y="3.8499999999999996" style="font-family: sans-serif; font-size: 11px; fill: rgb(0, 0, 0); fill-opacity: 1; white-space: pre; opacity: 1;" transform="translate(0,63.94816411106507)">2250</text></g><g class="ytick"><text text-anchor="end" x="24.377857852514197" y="3.8499999999999996" style="font-family: sans-serif; font-size: 11px; fill: rgb(0, 0, 0); fill-opacity: 1; white-space: pre; opacity: 1;" transform="translate(0,39.84816411106506)">2500</text></g></g><g class="overaxes-above"/></g></g><g class="polarlayer"/><g class="ternarylayer"/><g class="geolayer"/><g class="funnelarealayer"/><g class="pielayer"/><g class="iciclelayer"/><g class="treemaplayer"/><g class="sunburstlayer"/><g class="glimages"/><defs id="topdefs-364b2f"><g class="clips"/><clipPath id="legend364b2f"><rect width="155" height="86" x="1" y="1"/></clipPath></defs><g class="layer-above"><g class="imagelayer"/><g class="shapelayer"/></g><g class="infolayer"><g class="legend" pointer-events="all" transform="translate(432.6,20)"><rect class="bg" shape-rendering="crispEdges" width="156" height="87" x="0.5" y="0.5" style="stroke: rgb(0, 0, 0); stroke-opacity: 1; fill: rgb(255, 255, 255); fill-opacity: 1; stroke-width: 1px;"/><g class="scrollbox" transform="" clip-path="url(#legend364b2f)"><g class="groups"><g class="traces" transform="translate(1,15.5)" style="opacity: 1;"><text class="legendtext" text-anchor="start" x="40" y="3.9" style="font-family: sans-serif; font-size: 10px; fill: rgb(0, 0, 0); fill-opacity: 1; white-space: pre;">Number infected per day</text><g class="layers" style="opacity: 1;"><g class="legendfill"/><g class="legendlines"><path class="js-line" d="M5,0h30" style="fill: none; stroke: rgb(255, 0, 0); stroke-opacity: 1; stroke-width: 2px;"/></g><g class="legendsymbols"><g class="legendpoints"/></g></g><rect class="legendtoggle" x="0" y="-9.5" width="149.91861724853516" height="19" style="fill: rgb(0, 0, 0); fill-opacity: 0;"/></g><g class="traces" transform="translate(1,34.5)" style="opacity: 1;"><text class="legendtext" text-anchor="start" x="40" y="3.9" style="font-family: sans-serif; font-size: 10px; fill: rgb(0, 0, 0); fill-opacity: 1; white-space: pre;">MLP forecast</text><g class="layers" style="opacity: 1;"><g class="legendfill"/><g class="legendlines"><path class="js-line" d="M5,0h30" style="fill: none; stroke: rgb(0, 128, 0); stroke-opacity: 1; stroke-width: 2px;"/></g><g class="legendsymbols"><g class="legendpoints"/></g></g><rect class="legendtoggle" x="0" y="-9.5" width="149.91861724853516" height="19" style="fill: rgb(0, 0, 0); fill-opacity: 0;"/></g><g class="traces" transform="translate(1,53.5)" style="opacity: 1;"><text class="legendtext" text-anchor="start" x="40" y="3.9" style="font-family: sans-serif; font-size: 10px; fill: rgb(0, 0, 0); fill-opacity: 1; white-space: pre;">Median forecast Itô-SIS</text><g class="layers" style="opacity: 1;"><g class="legendfill"/><g class="legendlines"><path class="js-line" d="M5,0h30" style="fill: none; stroke: rgb(0, 0, 255); stroke-opacity: 1; stroke-width: 2px;"/></g><g class="legendsymbols"><g class="legendpoints"/></g></g><rect class="legendtoggle" x="0" y="-9.5" width="149.91861724853516" height="19" style="fill: rgb(0, 0, 0); fill-opacity: 0;"/></g><g class="traces" transform="translate(1,72.5)" style="opacity: 1;"><text class="legendtext" text-anchor="start" x="40" y="3.9" style="font-family: sans-serif; font-size: 10px; fill: rgb(0, 0, 0); fill-opacity: 1; white-space: pre;">forecast Itô-SIS band</text><g class="layers"><g class="legendfill"><path class="js-fill" d="M5,-2h30v6h-30z" style="stroke-width: 0; fill: rgb(0, 154, 250); fill-opacity: 0.15;"/></g><g class="legendlines"><path class="js-line" d="M5,-2h30" style="fill: none; stroke: rgb(0, 154, 250); stroke-opacity: 1; stroke-width: 1px;"/></g><g class="legendsymbols"><g class="legendpoints"/></g></g><rect class="legendtoggle" x="0" y="-9.5" width="149.91861724853516" height="19" style="fill: rgb(0, 0, 0); fill-opacity: 0;"/></g></g></g><rect class="scrollbar" rx="20" ry="3" width="0" height="0" x="0" y="0" style="fill: rgb(128, 139, 164); fill-opacity: 1;"/></g><g class="g-gtitle"/><g class="g-xtitle"/><g class="g-ytitle"/></g></svg>