<svg class="main-svg" xmlns="http://www.w3.org/2000/svg" xmlns:xlink="http://www.w3.org/1999/xlink" width="675" height="200" style=""><rect x="0" y="0" width="675" height="200" style="fill: rgb(255, 255, 255); fill-opacity: 1;"/><defs id="defs-5b2eb9"><g class="clips"><clipPath id="clip5b2eb9xyplot" class="plotclip"><rect width="596.0148731408573" height="144.8118985126859"/></clipPath><clipPath class="axesclip" id="clip5b2eb9x"><rect x="75.04811898512686" y="0" width="596.0148731408573" height="200"/></clipPath><clipPath class="axesclip" id="clip5b2eb9y"><rect x="0" y="23.14960629921261" width="675" height="144.8118985126859"/></clipPath><clipPath class="axesclip" id="clip5b2eb9xy"><rect x="75.04811898512686" y="23.14960629921261" width="596.0148731408573" height="144.8118985126859"/></clipPath></g><g class="gradients"/><g class="patterns"/></defs><g class="bglayer"/><g class="layer-below"><g class="imagelayer"/><g class="shapelayer"/></g><g class="cartesianlayer"><g class="subplot xy"><g class="layer-subplot"><g class="shapelayer"/><g class="imagelayer"/></g><g class="gridlayer"><g class="x"/><g class="y"><path class="ygrid crisp" transform="translate(0,142.1096062992126)" d="M75.04811898512686,0h596.0148731408573" style="stroke: rgb(0, 0, 0); stroke-opacity: 0.1; stroke-width: 0.5px;"/></g></g><g class="zerolinelayer"/><path class="xlines-below"/><path class="ylines-below"/><g class="overlines-below"/><g class="xaxislayer-below"/><g class="yaxislayer-below"/><g class="overaxes-below"/><g class="plot" transform="translate(75.04811898512686,23.14960629921261)" clip-path="url(#clip5b2eb9xyplot)"><g class="scatterlayer mlayer"><g class="trace scatter trace70e191" style="stroke-miterlimit: 2; opacity: 1;"><g class="fills"/><g class="errorbars"/><g class="lines"><path class="js-line" d="M-292.94,118.75L-155.24,118.93L-143.76,118.84L-86.39,117.99L-74.91,114.69L-51.96,117.17L-40.48,117.2L-29.01,118.3L-17.53,117.42L-6.06,116.14L5.42,117.42L16.89,113.41L28.37,113.93L39.84,116.38L51.32,108.16L62.79,117.42L74.27,118.45L85.74,117.08L97.22,116.93L108.7,113.32L120.17,115.63L131.65,116.6L143.12,116.69L177.55,114.78L189.02,115.6L200.5,110.07L211.97,113.2L223.45,112.71L234.92,115.17L246.4,116.66L257.88,112.2L269.35,107.31L280.83,106.01L292.3,108.37L303.78,112.71L315.25,105.98L326.73,105.37L349.68,112.17L361.15,107.4L372.63,109.56L384.1,106.64L395.58,108.07L407.05,104.64L418.53,106.07L430.01,105.67L441.48,106.16L452.96,109.89L464.43,103.79L475.91,102.76L487.38,101.64L498.86,98.94L521.81,103.55L533.28,99.7L544.76,106.46L556.23,94.93L567.71,87.89L579.18,85.43L590.66,83.68L602.14,79.67L613.61,88.92L625.09,79.58L636.56,73.05L648.04,77.73L682.46,80.06L693.94,88.41L705.41,77.52L716.89,73.42L739.84,54.12L751.32,54.21L762.79,51.48L774.27,68.99L785.74,62.56L797.22,45.72L808.69,31.67L820.17,23.78L831.64,8.82L843.12,27.93L854.59,30.7L866.07,-0.8L877.54,4.02L889.02,16.1L900.49,13.98L911.97,29.51L923.45,31.3L934.92,55.73L980.82,42.5L992.3,42.95L1003.77,50.87L1015.25,77.12L1026.72,58.04L1038.2,57.28L1049.67,52.6L1061.15,55.58L1095.58,81.16L1107.05,70.23L1130,68.84L1141.48,74.6L1152.95,74.21L1164.43,82.22L1175.9,90.02L1187.38,78.03L1221.8,87.86L1233.28,84.31L1244.76,86.35L1256.23,100.36L1279.18,87.56L1290.66,85.8L1313.61,85.04L1325.08,89.8L1348.03,98.51L1359.51,86.31L1393.93,76.36L1405.41,79.52L1416.89,97.51L1428.36,80.82L1462.79,82.8L1474.26,80.25L1497.21,95.08L1508.69,77.27L1566.07,74.97L1577.54,86.77L1611.97,63.13L1623.44,64.1L1646.39,57.55L1657.87,77.76L1680.82,42.83L1692.29,35.91L1726.72,20.17L1738.2,55.94L1761.15,-3.59L1772.62,-11.75L1807.05,-9.54L1818.52,20.99L1841.47,-16.76L1852.95,-15.52L1887.38,3.3L1898.85,41.65L1921.8,6.27L1933.28,2.63L1967.7,19.07L1979.18,58.76L2002.13,16.1L2013.6,26.81L2059.51,59.89L2070.98,37.77L2116.88,32L2128.36,34.61L2139.83,62.86L2151.31,26.84L2185.73,14.95L2197.21,20.08L2208.68,18.86L2220.16,53.6L2254.59,1.17L2266.06,-5.02L2289.01,-6.54L2300.49,33.03L2334.91,-55.18L2346.39,-59.79L2380.82,-2.44L2392.29,-85.09L2449.67,-116.04L2461.14,-33.45L2484.09,-141.77L2495.57,-95.05L2507.04,-117.77L2518.52,-103.75L2529.99,20.8L2541.47,3.75L2552.95,-75.11L2575.9,-110.01L2587.37,-81.54L2621.8,-16.18L2633.27,-69.89L2667.7,-47.38L2679.17,-32.69L2690.65,-29.9L2702.12,5.91L2748.03,-4.44L2759.5,15.22L2782.45,68.17L2793.93,22.23L2839.83,60.25L2851.3,58.76L2897.21,77.61L2908.68,75.94L2966.06,92.54L2977.53,86.71L3034.91,97.63L3046.39,98.42L3207.04,108.13L3218.52,108.65L3597.2,116.11L3608.68,114.9L4010.31,80.91L4021.79,72.99L4090.64,63.77L4102.12,34.31L4239.82,-289.7L4251.3,-405.43L4262.77,-387.74L4274.25,-472.3L4320.15,-742.63L4331.62,-628.63L4343.1,-675.09L4389,-494L4400.48,-613.79L4411.95,-669.53L4434.9,-701.73L4469.33,-428.52L4503.76,-461.59L4515.23,-482.8L4629.98,-18.31L4641.46,-17.03L4756.21,84.34L4767.69,89.96L6546.37,117.6" style="vector-effect: non-scaling-stroke; fill: none; stroke: rgb(255, 0, 0); stroke-opacity: 1; stroke-width: 2px; opacity: 1;"/></g><g class="points"/><g class="text"/></g><g class="trace scatter trace54ae7d" style="stroke-miterlimit: 2; opacity: 1;"><g class="fills"/><g class="errorbars"/><g class="lines"><path class="js-line" d="M315.25,105.98L372.63,105.79L384.1,105.61L452.96,103.66L464.43,103.2L533.28,99.61" style="vector-effect: non-scaling-stroke; fill: none; stroke: rgb(0, 0, 255); stroke-opacity: 1; stroke-width: 2px; opacity: 1;"/></g><g class="points"/><g class="text"/></g><g class="trace scatter traced78182" style="stroke-miterlimit: 2;"><g class="fills"><g><path class="js-fill" d="M315.25,105.98L349.68,106.76L361.15,106.74L407.05,106.39L418.53,106.07L487.38,104.19L498.86,103.71L533.28,102.37L533.28,96.49L521.81,97.45L510.33,98.46L464.43,101.09L452.96,101.81L315.25,105.98Z" style="fill: rgb(0, 154, 250); fill-opacity: 0.15; stroke-width: 0;"/></g></g><g class="errorbars"/><g class="lines"><path class="js-line" d="M315.25,105.98L452.96,101.81L464.43,101.09L510.33,98.46L521.81,97.45L533.28,96.49" style="vector-effect: non-scaling-stroke; fill: none; stroke: rgb(0, 154, 250); stroke-opacity: 1; stroke-width: 1px; opacity: 1;"/></g><g class="points"/><g class="text"/></g><g class="trace scatter traced64b38" style="stroke-miterlimit: 2;"><g class="fills"/><g class="errorbars"/><g class="lines"><path class="js-line" d="M315.25,105.98L349.68,106.76L361.15,106.74L407.05,106.39L418.53,106.07L487.38,104.19L498.86,103.71L533.28,102.37" style="vector-effect: non-scaling-stroke; fill: none; stroke: rgb(0, 154, 250); stroke-opacity: 1; stroke-width: 1px; opacity: 1;"/></g><g class="points"/><g class="text"/></g></g></g><g class="overplot"/><path class="xlines-above crisp" d="M74.04811898512686,168.46150481189852H671.0629921259841" style="fill: none; stroke-width: 1px; stroke: rgb(0, 0, 0); stroke-opacity: 1;"/><path class="ylines-above crisp" d="M74.54811898512686,23.14960629921261V167.96150481189852" style="fill: none; stroke-width: 1px; stroke: rgb(0, 0, 0); stroke-opacity: 1;"/><g class="overlines-above"/><g class="xaxislayer-above"/><g class="yaxislayer-above"><path class="ytick ticks crisp" d="M75.04811898512686,0h5" transform="translate(0,142.1096062992126)" style="stroke: rgb(0, 0, 0); stroke-opacity: 1; stroke-width: 1px;"/><g class="ytick"><text text-anchor="end" x="71.84811898512686" y="3.8499999999999996" transform="translate(0,142.1096062992126)" style="font-family: sans-serif; font-size: 11px; fill: rgb(0, 0, 0); fill-opacity: 1; white-space: pre; opacity: 1;">0</text></g></g><g class="overaxes-above"/></g></g><g class="polarlayer"/><g class="ternarylayer"/><g class="geolayer"/><g class="funnelarealayer"/><g class="pielayer"/><g class="iciclelayer"/><g class="treemaplayer"/><g class="sunburstlayer"/><g class="glimages"/><defs id="topdefs-5b2eb9"><g class="clips"/><clipPath id="legend5b2eb9"><rect width="166" height="67" x="1" y="1"/></clipPath></defs><g class="layer-above"><g class="imagelayer"/><g class="shapelayer"/></g><g class="infolayer"><g class="legend" pointer-events="all" transform="translate(47.25000000000001,20)"><rect class="bg" shape-rendering="crispEdges" width="167" height="68" x="0.5" y="0.5" style="stroke: rgb(0, 0, 0); stroke-opacity: 1; fill: rgb(255, 255, 255); fill-opacity: 1; stroke-width: 1px;"/><g class="scrollbox" transform="" clip-path="url(#legend5b2eb9)"><g class="groups"><g class="traces" transform="translate(1,15.5)" style="opacity: 1;"><text class="legendtext" text-anchor="start" x="40" y="4.29" style="font-family: sans-serif; font-size: 11px; fill: rgb(0, 0, 0); fill-opacity: 1; white-space: pre;">Number infected per day</text><g class="layers" style="opacity: 1;"><g class="legendfill"/><g class="legendlines"><path class="js-line" d="M5,0h30" style="fill: none; stroke: rgb(255, 0, 0); stroke-opacity: 1; stroke-width: 2px;"/></g><g class="legendsymbols"><g class="legendpoints"/></g></g><rect class="legendtoggle" x="0" y="-9.5" width="160.78531646728516" height="19" style="fill: rgb(0, 0, 0); fill-opacity: 0;"/></g><g class="traces" transform="translate(1,34.5)" style="opacity: 1;"><text class="legendtext" text-anchor="start" x="40" y="4.29" style="font-family: sans-serif; font-size: 11px; fill: rgb(0, 0, 0); fill-opacity: 1; white-space: pre;">Median forecast Itô-SIS</text><g class="layers" style="opacity: 1;"><g class="legendfill"/><g class="legendlines"><path class="js-line" d="M5,0h30" style="fill: none; stroke: rgb(0, 0, 255); stroke-opacity: 1; stroke-width: 2px;"/></g><g class="legendsymbols"><g class="legendpoints"/></g></g><rect class="legendtoggle" x="0" y="-9.5" width="160.78531646728516" height="19" style="fill: rgb(0, 0, 0); fill-opacity: 0;"/></g><g class="traces" transform="translate(1,53.5)" style="opacity: 1;"><text class="legendtext" text-anchor="start" x="40" y="4.29" style="font-family: sans-serif; font-size: 11px; fill: rgb(0, 0, 0); fill-opacity: 1; white-space: pre;">forecast Itô-SIS band</text><g class="layers"><g class="legendfill"><path class="js-fill" d="M5,-2h30v6h-30z" style="stroke-width: 0; fill: rgb(0, 154, 250); fill-opacity: 0.15;"/></g><g class="legendlines"><path class="js-line" d="M5,-2h30" style="fill: none; stroke: rgb(0, 154, 250); stroke-opacity: 1; stroke-width: 1px;"/></g><g class="legendsymbols"><g class="legendpoints"/></g></g><rect class="legendtoggle" x="0" y="-9.5" width="160.78531646728516" height="19" style="fill: rgb(0, 0, 0); fill-opacity: 0;"/></g></g></g><rect class="scrollbar" rx="20" ry="3" width="0" height="0" x="0" y="0" style="fill: rgb(128, 139, 164); fill-opacity: 1;"/></g><g class="g-gtitle"/><g class="g-xtitle"/><g class="g-ytitle"/></g></svg>