<svg class="main-svg" xmlns="http://www.w3.org/2000/svg" xmlns:xlink="http://www.w3.org/1999/xlink" width="700" height="500" style="" viewBox="0 0 700 500"><rect x="0" y="0" width="700" height="500" style="fill: rgb(255, 255, 255); fill-opacity: 1;"/><defs id="defs-656713"><g class="clips"><clipPath id="clip656713xyplot" class="plotclip"><rect width="591.3086227933883" height="385.3588145231846"/></clipPath><clipPath class="axesclip" id="clip656713x"><rect x="107.08760610609292" y="0" width="591.3086227933883" height="500"/></clipPath><clipPath class="axesclip" id="clip656713y"><rect x="0" y="22.79281496062994" width="700" height="385.3588145231846"/></clipPath><clipPath class="axesclip" id="clip656713xy"><rect x="107.08760610609292" y="22.79281496062994" width="591.3086227933883" height="385.3588145231846"/></clipPath></g><g class="gradients"/><g class="patterns"/></defs><g class="bglayer"/><g class="layer-below"><g class="imagelayer"/><g class="shapelayer"/></g><g class="cartesianlayer"><g class="subplot xy"><g class="layer-subplot"><g class="shapelayer"/><g class="imagelayer"/></g><g class="minor-gridlayer"><g class="x"/><g class="y"/></g><g class="gridlayer"><g class="x"><path class="xgrid crisp" transform="translate(149.93760610609291,0)" d="M0,22.79281496062994v385.3588145231846" style="stroke: rgb(0, 0, 0); stroke-opacity: 0.1; stroke-width: 0.5px;"/><path class="xgrid crisp" transform="translate(192.78760610609294,0)" d="M0,22.79281496062994v385.3588145231846" style="stroke: rgb(0, 0, 0); stroke-opacity: 0.1; stroke-width: 0.5px;"/><path class="xgrid crisp" transform="translate(235.63760610609293,0)" d="M0,22.79281496062994v385.3588145231846" style="stroke: rgb(0, 0, 0); stroke-opacity: 0.1; stroke-width: 0.5px;"/><path class="xgrid crisp" transform="translate(278.47760610609294,0)" d="M0,22.79281496062994v385.3588145231846" style="stroke: rgb(0, 0, 0); stroke-opacity: 0.1; stroke-width: 0.5px;"/><path class="xgrid crisp" transform="translate(321.32760610609296,0)" d="M0,22.79281496062994v385.3588145231846" style="stroke: rgb(0, 0, 0); stroke-opacity: 0.1; stroke-width: 0.5px;"/><path class="xgrid crisp" transform="translate(364.17760610609287,0)" d="M0,22.79281496062994v385.3588145231846" style="stroke: rgb(0, 0, 0); stroke-opacity: 0.1; stroke-width: 0.5px;"/><path class="xgrid crisp" transform="translate(407.0276061060929,0)" d="M0,22.79281496062994v385.3588145231846" style="stroke: rgb(0, 0, 0); stroke-opacity: 0.1; stroke-width: 0.5px;"/><path class="xgrid crisp" transform="translate(449.8776061060929,0)" d="M0,22.79281496062994v385.3588145231846" style="stroke: rgb(0, 0, 0); stroke-opacity: 0.1; stroke-width: 0.5px;"/><path class="xgrid crisp" transform="translate(492.72760610609294,0)" d="M0,22.79281496062994v385.3588145231846" style="stroke: rgb(0, 0, 0); stroke-opacity: 0.1; stroke-width: 0.5px;"/><path class="xgrid crisp" transform="translate(535.567606106093,0)" d="M0,22.79281496062994v385.3588145231846" style="stroke: rgb(0, 0, 0); stroke-opacity: 0.1; stroke-width: 0.5px;"/><path class="xgrid crisp" transform="translate(578.4176061060929,0)" d="M0,22.79281496062994v385.3588145231846" style="stroke: rgb(0, 0, 0); stroke-opacity: 0.1; stroke-width: 0.5px;"/><path class="xgrid crisp" transform="translate(621.2676061060929,0)" d="M0,22.79281496062994v385.3588145231846" style="stroke: rgb(0, 0, 0); stroke-opacity: 0.1; stroke-width: 0.5px;"/><path class="xgrid crisp" transform="translate(664.1176061060929,0)" d="M0,22.79281496062994v385.3588145231846" style="stroke: rgb(0, 0, 0); stroke-opacity: 0.1; stroke-width: 0.5px;"/></g><g class="y"><path class="ygrid crisp" transform="translate(0,356.6028149606299)" d="M107.08760610609292,0h591.3086227933883" style="stroke: rgb(0, 0, 0); stroke-opacity: 0.1; stroke-width: 0.5px;"/><path class="ygrid crisp" transform="translate(0,304.7328149606299)" d="M107.08760610609292,0h591.3086227933883" style="stroke: rgb(0, 0, 0); stroke-opacity: 0.1; stroke-width: 0.5px;"/><path class="ygrid crisp" transform="translate(0,252.87281496062997)" d="M107.08760610609292,0h591.3086227933883" style="stroke: rgb(0, 0, 0); stroke-opacity: 0.1; stroke-width: 0.5px;"/><path class="ygrid crisp" transform="translate(0,201.00281496062996)" d="M107.08760610609292,0h591.3086227933883" style="stroke: rgb(0, 0, 0); stroke-opacity: 0.1; stroke-width: 0.5px;"/><path class="ygrid crisp" transform="translate(0,149.14281496062995)" d="M107.08760610609292,0h591.3086227933883" style="stroke: rgb(0, 0, 0); stroke-opacity: 0.1; stroke-width: 0.5px;"/><path class="ygrid crisp" transform="translate(0,97.27281496062994)" d="M107.08760610609292,0h591.3086227933883" style="stroke: rgb(0, 0, 0); stroke-opacity: 0.1; stroke-width: 0.5px;"/><path class="ygrid crisp" transform="translate(0,45.412814960629944)" d="M107.08760610609292,0h591.3086227933883" style="stroke: rgb(0, 0, 0); stroke-opacity: 0.1; stroke-width: 0.5px;"/></g></g><g class="zerolinelayer"/><g class="layer-between"><g class="shapelayer"/><g class="imagelayer"/></g><path class="xlines-below"/><path class="ylines-below"/><g class="overlines-below"/><g class="xaxislayer-below"/><g class="yaxislayer-below"/><g class="overaxes-below"/><g class="overplot"><g class="xy" transform="translate(107.08760610609292,22.79281496062994)" clip-path="url(#clip656713xyplot)"><g class="scatterlayer mlayer"><g class="trace scatter trace680a38" style="stroke-miterlimit: 2; opacity: 1;"><g class="fills"/><g class="errorbars"/><g class="lines"><path class="js-line" d="M0,385.36L2.86,384.32L5.71,384.63L8.57,384.11L11.43,385.26L14.28,380.69L17.14,381.11L22.85,359.84L25.71,362.12L28.57,364.41L31.42,327.94L34.28,291.48L37.14,238.27L39.99,324.37L42.85,257.67L45.71,274.06L48.56,308.6L51.42,323.95L54.27,294.28L57.13,286.3L59.99,274.16L62.84,251.96L65.7,244.08L68.56,255.59L71.41,281.11L74.27,263.48L77.13,262.02L79.98,277.17L82.84,257.77L85.7,285.47L88.55,279.04L97.12,156.84L99.98,137.86L102.84,82.16L105.69,66.6L108.55,84.75L111.41,55.19L114.26,62.97L117.12,75.83L119.98,87.45L122.83,104.04L125.69,120.12L128.55,124.12L131.4,128.11L134.26,149.79L137.12,168.98L139.97,178.52L142.83,216.18L145.68,181.12L148.54,195.12L151.4,213.79L157.11,222.4L159.97,228.83L162.82,219.08L165.68,230.18L168.54,243.15L171.39,246.36L174.25,251.44L177.11,251.13L179.96,261.82L182.82,278.83L185.68,264.51L188.53,268.04L191.39,266.07L194.25,282.87L197.1,270.32L199.96,274.37L202.82,283.7L205.67,281.32L208.53,302.48L211.39,284.43L214.24,258.81L217.1,248.44L219.96,211.4L222.81,231.63L225.67,224.27L228.53,227.07L231.38,242.21L234.24,211.09L237.09,232.05L239.95,182.57L242.81,198.13L245.66,167.63L248.52,203.42L251.38,198.33L254.23,147.71L257.09,166.7L259.95,142.32L262.8,137.55L265.66,145.95L268.52,191.8L271.37,159.54L274.23,175.82L277.09,200.31L279.94,169.91L282.8,151.45L285.66,93.26L288.51,148.96L291.37,124.69L294.23,76.66L297.08,62.34L299.94,60.58L302.8,14.94L308.51,150.31L311.37,140.45L314.22,173.75L317.08,168.36L319.94,177.07L322.79,153.52L325.65,139.93L328.5,135.68L331.36,129.25L334.22,131.64L337.07,119.81L339.93,114.73L342.79,116.39L345.64,114.42L348.5,144.81L351.36,140.04L354.21,118.77L357.07,132.05L362.78,116.49L365.64,113.07L368.5,130.91L371.35,127.49L374.21,122.61L377.07,130.81L382.78,110.58L385.64,119.5L388.49,131.64L391.35,120.12L394.21,114.62L397.06,112.13L399.92,106.53L402.78,170.02L405.63,151.03L408.49,137.03L411.35,158.92L414.2,142.01L417.06,124.17L419.91,137.96L422.77,126.35L425.63,138.9L428.48,160.99L431.34,159.33L437.05,113.38L439.91,117.43L442.77,113.79L445.62,127.49L448.48,145.43L451.34,143.67L454.19,133.19L457.05,109.02L459.91,112.24L462.76,113.79L465.62,108.3L468.48,121.37L471.33,107.16L474.19,116.18L477.05,100.31L479.9,105.91L482.76,112.45L485.62,131.53L488.47,165.24L491.33,176.14L494.19,164.52L497.04,142.42L499.9,125.31L502.76,113.38L505.61,126.24L508.47,152.8L511.32,164.41L514.18,152.59L517.04,138.27L519.89,132.15L522.75,149.27L525.61,156.84L528.46,175.31L531.32,166.49L534.18,152.8L537.03,156.12L539.89,153L542.75,158.5L545.6,166.28L548.46,188.06L554.17,215.35L557.03,211.2L562.74,178.83L565.6,175.51L568.46,189.21L571.31,179.04L577.03,146.88L579.88,145.74L582.74,171.68L585.6,145.74L588.45,163.79L591.31,168.98" style="vector-effect: none; fill: none; stroke: rgb(255, 0, 0); stroke-opacity: 1; stroke-width: 2px; opacity: 1;"/></g><g class="points"/><g class="text"/></g><g class="trace scatter trace05f2f5" style="stroke-miterlimit: 2; opacity: 1;"><g class="fills"/><g class="errorbars"/><g class="lines"><path class="js-line" d="M505.61,126.24L508.47,148.41L511.32,147.9L514.18,148.91L517.04,145.09L525.61,137.33L528.46,135.2L534.18,132.04L537.03,130.97L545.6,128.99L548.46,128.67L562.74,127.99L565.6,127.96L591.31,127.91" style="vector-effect: none; fill: none; stroke: rgb(0, 128, 0); stroke-opacity: 1; stroke-width: 2px; opacity: 1;"/></g><g class="points"/><g class="text"/></g><g class="trace scatter traced53cce" style="stroke-miterlimit: 2; opacity: 1;"><g class="fills"/><g class="errorbars"/><g class="lines"><path class="js-line" d="M31.42,360.7L37.14,275.24L39.99,211.71L42.85,312.38L45.71,250.06L48.56,266.54L51.42,305.24L54.27,321.62L57.13,290.65L62.84,271.59L65.7,249.53L68.56,242.45L71.41,252.93L74.27,280.37L77.13,262.36L79.98,260.39L82.84,275.32L85.7,256.48L88.55,284.58L91.41,278.27L94.27,238.59L97.12,201.92L99.98,155.16L102.84,134.83L105.69,78.75L108.55,62.15L111.41,79.71L114.26,50.05L117.12,56.46L122.83,82.6L125.69,100.23L128.55,117.39L131.4,121.85L134.26,126.69L137.12,148.71L139.97,167.98L142.83,177.93L145.68,215.77L148.54,180.67L151.4,194.71L154.25,213.34L159.97,222L162.82,228.42L165.68,218.59L168.54,229.63L171.39,242.59L174.25,245.57L177.11,251.07L179.96,250.68L182.82,261.28L185.68,278.42L188.53,264.08L191.39,267.61L194.25,265.76L197.1,282.55L199.96,269.87L202.82,273.9L205.67,283.23L208.53,280.88L211.39,302.07L214.24,283.82L217.1,258.24L219.96,247.68L222.81,210.36L225.67,230.21L228.53,222.88L231.38,225.37L234.24,240.57L237.09,209L239.95,229.69L242.81,179.95L245.66,196.11L248.52,165.41L251.38,201.98L254.23,196.53L257.09,145.49L259.95,164.44L262.8,139.55L265.66,135.18L268.52,143.18L271.37,190.27L274.23,157.4L277.09,174.33L279.94,198.55L282.8,167.98L285.66,150.16L288.51,91.3L291.37,147.53L294.23,123.07L297.08,74.35L299.94,59L302.8,57.55L305.65,10.71L311.37,147.68L314.22,138.13L317.08,172.36L319.94,166.51L322.79,175.68L325.65,152.63L328.5,139.21L331.36,134.97L334.22,128.82L337.07,130.58L339.93,118.04L342.79,112.91L345.64,114.01L348.5,112.13L351.36,142.56L354.21,138.16L357.07,116.95L359.93,130.34L365.64,114.7L368.5,111.4L371.35,129.37L374.21,125.95L377.07,121.03L379.92,128.95L385.64,109L388.49,117.75L391.35,129.99L394.21,118.6L397.06,113.12L399.92,110.29L402.78,104.65L405.63,168.66L408.49,149.55L411.35,135.61L414.2,157.67L417.06,140.73L419.91,122.57L422.77,136.53L425.63,125L428.48,137.44L431.34,159.74L434.2,157.51L439.91,111.71L442.77,115.39L445.62,111.91L448.48,125.99L451.34,143.79L454.19,142.22L457.05,131.54L459.91,106.87L462.76,110.13L465.62,111.98L468.48,106.65L471.33,119.77L474.19,105.49L477.05,114.36L479.9,98.08L482.76,103.67L485.62,110.42L488.47,129.98L491.33,163.91L494.19,174.91L497.04,163.43L499.9,141.16L502.76,124.18L505.61,112.02L508.47,125.06L511.32,151.68L514.18,163.25L517.04,151.23L519.89,136.43L522.75,130.02L525.61,147.55L528.46,155.46L531.32,174.2L534.18,165.53L537.03,151.69L539.89,154.73L542.75,151.47L545.6,157.12L548.46,165.15L551.32,187.12L557.03,214.47L559.89,210.23L565.6,178.02L568.46,174.64L571.31,188.42L574.17,178.09L579.88,145.26L582.74,143.78L585.6,169.61L588.45,143.49L591.31,161.92" style="vector-effect: none; fill: none; stroke: rgb(0, 0, 255); stroke-opacity: 1; stroke-width: 2px; opacity: 1;"/></g><g class="points"/><g class="text"/></g><g class="trace scatter trace8a108f" style="stroke-miterlimit: 2;"><g class="fills"><g><path class="js-fill" d="M31.42,365.2L37.14,294.1L39.99,239.59L42.85,336.54L45.71,262.53L48.56,279.74L51.42,311.62L54.27,326.89L57.13,299.36L59.99,292.27L62.84,279.94L65.7,257.12L68.56,253.67L71.41,259.38L74.27,283.61L77.13,266.41L79.98,263.63L82.84,278.5L85.7,259.04L88.55,286.58L91.41,280.56L99.98,160.49L102.84,141.38L105.69,87.68L108.55,72.29L111.41,89.6L114.26,61.19L117.12,65.78L119.98,78.43L122.83,90.29L125.69,105.97L128.55,122.11L131.4,125.56L134.26,129.55L137.12,150.66L139.97,169.91L142.83,179.15L145.68,216.83L148.54,182.27L151.4,196.16L154.25,214.87L159.97,224.21L162.82,230.47L165.68,221.67L168.54,232.47L171.39,244.87L174.25,247.78L177.11,252.51L179.96,251.82L182.82,262.14L185.68,279.3L188.53,265L191.39,268.86L194.25,266.84L197.1,283.63L199.96,270.79L202.82,274.95L205.67,284.47L208.53,282.49L211.39,303.43L214.24,285.3L217.1,259.66L219.96,249.69L222.81,213.84L225.67,233.13L228.53,225.66L231.38,228.83L234.24,244.49L237.09,214L239.95,234.4L242.81,185.46L245.66,200.47L248.52,169.93L251.38,205.27L254.23,199.83L257.09,150.31L259.95,170.54L262.8,147.39L265.66,142.21L268.52,149.49L271.37,194.41L274.23,163.38L277.09,178.42L279.94,202.45L282.8,172.51L285.66,153.89L288.51,95.9L291.37,151.73L294.23,128.47L297.08,82.16L299.94,65.84L302.8,64.1L305.65,18.8L311.37,152.93L314.22,144.49L317.08,176.39L319.94,169.99L322.79,181.65L325.65,155.97L328.5,145.28L331.36,141.4L334.22,135.09L337.07,135.9L339.93,121.79L342.79,116.27L345.64,116.94L348.5,115.35L351.36,145.83L354.21,140.66L357.07,119.09L359.93,132.42L362.78,123.52L365.64,117.19L368.5,113.94L371.35,131.71L374.21,128.67L377.07,124.08L379.92,131.83L382.78,122.41L385.64,111.66L388.49,120.18L391.35,132.05L394.21,120.81L397.06,115.67L399.92,112.33L402.78,107.01L405.63,170.59L408.49,151.52L411.35,137.95L414.2,159.86L417.06,143.03L419.91,125.54L422.77,139.69L425.63,129.05L428.48,141.96L431.34,163.99L434.2,160.38L439.91,115.57L442.77,118.93L445.62,115.47L448.48,128.76L451.34,146.55L454.19,144.92L457.05,135.19L459.91,109.79L462.76,113.79L465.62,114.96L468.48,108.92L471.33,122.35L474.19,108.25L477.05,117.5L479.9,101.08L482.76,106.88L485.62,113.2L488.47,131.66L491.33,165.55L494.19,176.75L497.04,165.26L499.9,143.27L505.61,114.44L508.47,127.86L511.32,154.43L514.18,165.9L517.04,154.22L519.89,139.22L522.75,133.78L525.61,150.27L528.46,157.67L531.32,176.48L534.18,168.26L537.03,154.12L539.89,156.9L542.75,153.83L545.6,159.35L548.46,167.14L551.32,188.92L554.17,204.22L557.03,216.36L559.89,211.62L565.6,179.38L568.46,176.47L571.31,190.26L574.17,180.55L579.88,148.27L582.74,147.09L585.6,172.47L588.45,147.23L591.31,164.8L591.31,157.9L588.45,138.79L585.6,165.65L582.74,139.35L579.88,141.17L574.17,174.92L571.31,185.3L568.46,172.06L565.6,175.91L562.74,190.16L559.89,208.31L557.03,212.5L554.17,200.81L551.32,184.64L548.46,162.61L545.6,154.15L542.75,148.36L539.89,151.59L537.03,149.19L534.18,163.22L531.32,171.46L528.46,152.65L525.61,143.68L522.75,125.4L519.89,133L517.04,147.54L514.18,160.2L511.32,148.02L508.47,121.55L505.61,107.56L502.76,121.45L497.04,161.03L494.19,172.74L491.33,161.86L488.47,127.35L485.62,106.86L482.76,99.2L479.9,93.95L477.05,110.73L474.19,101.43L471.33,116.46L468.48,102.91L465.62,107.05L459.91,102.94L457.05,127.07L454.19,139.24L451.34,140.72L448.48,121.93L445.62,107.86L442.77,111.26L439.91,107.18L434.2,153.57L431.34,154.02L428.48,132L425.63,119.65L422.77,130.45L419.91,118.56L417.06,136.66L414.2,154.26L411.35,131.68L408.49,146.08L405.63,166.05L402.78,100.87L399.92,106.98L397.06,110.38L394.21,115.49L391.35,127.17L388.49,114.23L385.64,105.63L379.92,125.48L377.07,116.04L374.21,122.67L371.35,125.72L368.5,107.32L365.64,110.16L359.93,126.87L357.07,113.76L354.21,135.2L351.36,138.06L348.5,107.09L345.64,109.7L342.79,107.28L339.93,113.37L337.07,125.22L334.22,122.37L331.36,128.52L328.5,134.24L325.65,146.82L322.79,171.89L319.94,161.93L317.08,166.48L314.22,129.87L311.37,140.35L305.65,0L302.8,49.16L299.94,49.98L297.08,63.88L294.23,116.84L291.37,142.1L288.51,84.34L285.66,146.14L282.8,162.94L279.94,193.2L277.09,168.93L274.23,151.47L271.37,185.74L268.52,134.85L265.66,126.54L262.8,133L259.95,157.46L257.09,138.33L254.23,192.05L251.38,197.55L248.52,158.3L245.66,190.33L242.81,172.47L239.95,224.76L237.09,203.45L234.24,235.6L231.38,219.93L228.53,217.78L225.67,225.26L222.81,205.79L219.96,243.1L217.1,256.07L214.24,281.95L211.39,300.49L208.53,279.04L205.67,281.33L202.82,272.03L199.96,268.42L197.1,281.33L194.25,264.19L191.39,265.88L188.53,263.03L185.68,277.47L182.82,260.01L179.96,249.32L177.11,249.15L174.25,242.71L171.39,238.92L168.54,227.01L165.68,215.84L162.82,226.17L159.97,219.56L154.25,210.77L151.4,192.66L148.54,178.92L145.68,214.61L142.83,176.18L139.97,165.42L137.12,146.25L134.26,123.65L131.4,116.53L128.55,112.1L125.69,93.04L122.83,68.87L119.98,55.12L117.12,44.19L114.26,36.45L111.41,67.9L108.55,45.39L105.69,67.58L102.84,126.52L99.98,147.35L91.41,275.96L88.55,282.3L85.7,252.76L82.84,270.95L79.98,255.72L77.13,256.71L74.27,276.49L71.41,242L68.56,230.84L65.7,236.82L62.84,262.78L59.99,266.45L57.13,282.16L54.27,312.98L51.42,296.46L48.56,246.28L45.71,228.33L42.85,278.93L39.99,153.61L37.14,245.32L31.42,350.64Z" style="fill: rgb(0, 154, 250); fill-opacity: 0.15; stroke-width: 0;"/></g></g><g class="errorbars"/><g class="lines"><path class="js-line" d="M31.42,350.64L37.14,245.32L39.99,153.61L42.85,278.93L45.71,228.33L48.56,246.28L51.42,296.46L54.27,312.98L57.13,282.16L59.99,266.45L62.84,262.78L65.7,236.82L68.56,230.84L71.41,242L74.27,276.49L77.13,256.71L79.98,255.72L82.84,270.95L85.7,252.76L88.55,282.3L91.41,275.96L99.98,147.35L102.84,126.52L105.69,67.58L108.55,45.39L111.41,67.9L114.26,36.45L117.12,44.19L119.98,55.12L122.83,68.87L125.69,93.04L128.55,112.1L131.4,116.53L134.26,123.65L137.12,146.25L139.97,165.42L142.83,176.18L145.68,214.61L148.54,178.92L151.4,192.66L154.25,210.77L159.97,219.56L162.82,226.17L165.68,215.84L168.54,227.01L171.39,238.92L174.25,242.71L177.11,249.15L179.96,249.32L182.82,260.01L185.68,277.47L188.53,263.03L191.39,265.88L194.25,264.19L197.1,281.33L199.96,268.42L202.82,272.03L205.67,281.33L208.53,279.04L211.39,300.49L214.24,281.95L217.1,256.07L219.96,243.1L222.81,205.79L225.67,225.26L228.53,217.78L231.38,219.93L234.24,235.6L237.09,203.45L239.95,224.76L242.81,172.47L245.66,190.33L248.52,158.3L251.38,197.55L254.23,192.05L257.09,138.33L259.95,157.46L262.8,133L265.66,126.54L268.52,134.85L271.37,185.74L274.23,151.47L277.09,168.93L279.94,193.2L282.8,162.94L285.66,146.14L288.51,84.34L291.37,142.1L294.23,116.84L297.08,63.88L299.94,49.98L302.8,49.16L305.65,0L311.37,140.35L314.22,129.87L317.08,166.48L319.94,161.93L322.79,171.89L325.65,146.82L328.5,134.24L331.36,128.52L334.22,122.37L337.07,125.22L339.93,113.37L342.79,107.28L345.64,109.7L348.5,107.09L351.36,138.06L354.21,135.2L357.07,113.76L359.93,126.87L365.64,110.16L368.5,107.32L371.35,125.72L374.21,122.67L377.07,116.04L379.92,125.48L385.64,105.63L388.49,114.23L391.35,127.17L394.21,115.49L397.06,110.38L399.92,106.98L402.78,100.87L405.63,166.05L408.49,146.08L411.35,131.68L414.2,154.26L417.06,136.66L419.91,118.56L422.77,130.45L425.63,119.65L428.48,132L431.34,154.02L434.2,153.57L439.91,107.18L442.77,111.26L445.62,107.86L448.48,121.93L451.34,140.72L454.19,139.24L457.05,127.07L459.91,102.94L465.62,107.05L468.48,102.91L471.33,116.46L474.19,101.43L477.05,110.73L479.9,93.95L482.76,99.2L485.62,106.86L488.47,127.35L491.33,161.86L494.19,172.74L497.04,161.03L502.76,121.45L505.61,107.56L508.47,121.55L511.32,148.02L514.18,160.2L517.04,147.54L519.89,133L522.75,125.4L525.61,143.68L528.46,152.65L531.32,171.46L534.18,163.22L537.03,149.19L539.89,151.59L542.75,148.36L545.6,154.15L548.46,162.61L551.32,184.64L554.17,200.81L557.03,212.5L559.89,208.31L562.74,190.16L565.6,175.91L568.46,172.06L571.31,185.3L574.17,174.92L579.88,141.17L582.74,139.35L585.6,165.65L588.45,138.79L591.31,157.9" style="vector-effect: none; fill: none; stroke: rgb(0, 154, 250); stroke-opacity: 1; stroke-width: 1px; opacity: 1;"/></g><g class="points"/><g class="text"/></g><g class="trace scatter tracef3ee64" style="stroke-miterlimit: 2;"><g class="fills"/><g class="errorbars"/><g class="lines"><path class="js-line" d="M31.42,365.2L37.14,294.1L39.99,239.59L42.85,336.54L45.71,262.53L48.56,279.74L51.42,311.62L54.27,326.89L57.13,299.36L59.99,292.27L62.84,279.94L65.7,257.12L68.56,253.67L71.41,259.38L74.27,283.61L77.13,266.41L79.98,263.63L82.84,278.5L85.7,259.04L88.55,286.58L91.41,280.56L99.98,160.49L102.84,141.38L105.69,87.68L108.55,72.29L111.41,89.6L114.26,61.19L117.12,65.78L119.98,78.43L122.83,90.29L125.69,105.97L128.55,122.11L131.4,125.56L134.26,129.55L137.12,150.66L139.97,169.91L142.83,179.15L145.68,216.83L148.54,182.27L151.4,196.16L154.25,214.87L159.97,224.21L162.82,230.47L165.68,221.67L168.54,232.47L171.39,244.87L174.25,247.78L177.11,252.51L179.96,251.82L182.82,262.14L185.68,279.3L188.53,265L191.39,268.86L194.25,266.84L197.1,283.63L199.96,270.79L202.82,274.95L205.67,284.47L208.53,282.49L211.39,303.43L214.24,285.3L217.1,259.66L219.96,249.69L222.81,213.84L225.67,233.13L228.53,225.66L231.38,228.83L234.24,244.49L237.09,214L239.95,234.4L242.81,185.46L245.66,200.47L248.52,169.93L251.38,205.27L254.23,199.83L257.09,150.31L259.95,170.54L262.8,147.39L265.66,142.21L268.52,149.49L271.37,194.41L274.23,163.38L277.09,178.42L279.94,202.45L282.8,172.51L285.66,153.89L288.51,95.9L291.37,151.73L294.23,128.47L297.08,82.16L299.94,65.84L302.8,64.1L305.65,18.8L311.37,152.93L314.22,144.49L317.08,176.39L319.94,169.99L322.79,181.65L325.65,155.97L328.5,145.28L331.36,141.4L334.22,135.09L337.07,135.9L339.93,121.79L342.79,116.27L345.64,116.94L348.5,115.35L351.36,145.83L354.21,140.66L357.07,119.09L359.93,132.42L362.78,123.52L365.64,117.19L368.5,113.94L371.35,131.71L374.21,128.67L377.07,124.08L379.92,131.83L382.78,122.41L385.64,111.66L388.49,120.18L391.35,132.05L394.21,120.81L397.06,115.67L399.92,112.33L402.78,107.01L405.63,170.59L408.49,151.52L411.35,137.95L414.2,159.86L417.06,143.03L419.91,125.54L422.77,139.69L425.63,129.05L428.48,141.96L431.34,163.99L434.2,160.38L439.91,115.57L442.77,118.93L445.62,115.47L448.48,128.76L451.34,146.55L454.19,144.92L457.05,135.19L459.91,109.79L462.76,113.79L465.62,114.96L468.48,108.92L471.33,122.35L474.19,108.25L477.05,117.5L479.9,101.08L482.76,106.88L485.62,113.2L488.47,131.66L491.33,165.55L494.19,176.75L497.04,165.26L499.9,143.27L505.61,114.44L508.47,127.86L511.32,154.43L514.18,165.9L517.04,154.22L519.89,139.22L522.75,133.78L525.61,150.27L528.46,157.67L531.32,176.48L534.18,168.26L537.03,154.12L539.89,156.9L542.75,153.83L545.6,159.35L548.46,167.14L551.32,188.92L554.17,204.22L557.03,216.36L559.89,211.62L565.6,179.38L568.46,176.47L571.31,190.26L574.17,180.55L579.88,148.27L582.74,147.09L585.6,172.47L588.45,147.23L591.31,164.8" style="vector-effect: none; fill: none; stroke: rgb(0, 154, 250); stroke-opacity: 1; stroke-width: 1px; opacity: 1;"/></g><g class="points"/><g class="text"/></g></g></g></g><path class="xlines-above crisp" d="M106.08760610609292,408.65162948381453H698.3962288994812" style="fill: none; stroke-width: 1px; stroke: rgb(0, 0, 0); stroke-opacity: 1;"/><path class="ylines-above crisp" d="M106.58760610609292,22.79281496062994V408.15162948381453" style="fill: none; stroke-width: 1px; stroke: rgb(0, 0, 0); stroke-opacity: 1;"/><g class="overlines-above"/><g class="xaxislayer-above"><path class="xtick ticks crisp" d="M0,409.15162948381453v5" transform="translate(107.08760610609292,0)" style="stroke: rgb(0, 0, 0); stroke-opacity: 1; stroke-width: 1px;"/><path class="xtick ticks crisp" d="M0,409.15162948381453v5" transform="translate(149.93760610609291,0)" style="stroke: rgb(0, 0, 0); stroke-opacity: 1; stroke-width: 1px;"/><path class="xtick ticks crisp" d="M0,409.15162948381453v5" transform="translate(192.78760610609294,0)" style="stroke: rgb(0, 0, 0); stroke-opacity: 1; stroke-width: 1px;"/><path class="xtick ticks crisp" d="M0,409.15162948381453v5" transform="translate(235.63760610609293,0)" style="stroke: rgb(0, 0, 0); stroke-opacity: 1; stroke-width: 1px;"/><path class="xtick ticks crisp" d="M0,409.15162948381453v5" transform="translate(278.47760610609294,0)" style="stroke: rgb(0, 0, 0); stroke-opacity: 1; stroke-width: 1px;"/><path class="xtick ticks crisp" d="M0,409.15162948381453v5" transform="translate(321.32760610609296,0)" style="stroke: rgb(0, 0, 0); stroke-opacity: 1; stroke-width: 1px;"/><path class="xtick ticks crisp" d="M0,409.15162948381453v5" transform="translate(364.17760610609287,0)" style="stroke: rgb(0, 0, 0); stroke-opacity: 1; stroke-width: 1px;"/><path class="xtick ticks crisp" d="M0,409.15162948381453v5" transform="translate(407.0276061060929,0)" style="stroke: rgb(0, 0, 0); stroke-opacity: 1; stroke-width: 1px;"/><path class="xtick ticks crisp" d="M0,409.15162948381453v5" transform="translate(449.8776061060929,0)" style="stroke: rgb(0, 0, 0); stroke-opacity: 1; stroke-width: 1px;"/><path class="xtick ticks crisp" d="M0,409.15162948381453v5" transform="translate(492.72760610609294,0)" style="stroke: rgb(0, 0, 0); stroke-opacity: 1; stroke-width: 1px;"/><path class="xtick ticks crisp" d="M0,409.15162948381453v5" transform="translate(535.567606106093,0)" style="stroke: rgb(0, 0, 0); stroke-opacity: 1; stroke-width: 1px;"/><path class="xtick ticks crisp" d="M0,409.15162948381453v5" transform="translate(578.4176061060929,0)" style="stroke: rgb(0, 0, 0); stroke-opacity: 1; stroke-width: 1px;"/><path class="xtick ticks crisp" d="M0,409.15162948381453v5" transform="translate(621.2676061060929,0)" style="stroke: rgb(0, 0, 0); stroke-opacity: 1; stroke-width: 1px;"/><path class="xtick ticks crisp" d="M0,409.15162948381453v5" transform="translate(664.1176061060929,0)" style="stroke: rgb(0, 0, 0); stroke-opacity: 1; stroke-width: 1px;"/><g class="xtick"><text text-anchor="end" x="-1.9249999999999998" y="424.0516294838145" transform="translate(107.08760610609292,0) rotate(-90,-1.9249999999999998,418.5516294838145)" style="font-family: sans-serif; font-size: 11px; fill: rgb(0, 0, 0); fill-opacity: 1; white-space: pre; opacity: 1;">2020-02-20</text></g><g class="xtick"><text text-anchor="end" x="-1.9249999999999998" y="424.0516294838145" style="font-family: sans-serif; font-size: 11px; fill: rgb(0, 0, 0); fill-opacity: 1; white-space: pre; opacity: 1;" transform="translate(149.93760610609291,0) rotate(-90,-1.9249999999999998,418.5516294838145)">2020-03-06</text></g><g class="xtick"><text text-anchor="end" x="-1.9249999999999998" y="424.0516294838145" style="font-family: sans-serif; font-size: 11px; fill: rgb(0, 0, 0); fill-opacity: 1; white-space: pre; opacity: 1;" transform="translate(192.78760610609294,0) rotate(-90,-1.9249999999999998,418.5516294838145)">2020-03-21</text></g><g class="xtick"><text text-anchor="end" x="-1.9249999999999998" y="424.0516294838145" style="font-family: sans-serif; font-size: 11px; fill: rgb(0, 0, 0); fill-opacity: 1; white-space: pre; opacity: 1;" transform="translate(235.63760610609293,0) rotate(-90,-1.9249999999999998,418.5516294838145)">2020-04-05</text></g><g class="xtick"><text text-anchor="end" x="-1.9249999999999998" y="424.0516294838145" style="font-family: sans-serif; font-size: 11px; fill: rgb(0, 0, 0); fill-opacity: 1; white-space: pre; opacity: 1;" transform="translate(278.47760610609294,0) rotate(-90,-1.9249999999999998,418.5516294838145)">2020-04-20</text></g><g class="xtick"><text text-anchor="end" x="-1.9249999999999998" y="424.0516294838145" style="font-family: sans-serif; font-size: 11px; fill: rgb(0, 0, 0); fill-opacity: 1; white-space: pre; opacity: 1;" transform="translate(321.32760610609296,0) rotate(-90,-1.9249999999999998,418.5516294838145)">2020-05-05</text></g><g class="xtick"><text text-anchor="end" x="-1.9249999999999998" y="424.0516294838145" style="font-family: sans-serif; font-size: 11px; fill: rgb(0, 0, 0); fill-opacity: 1; white-space: pre; opacity: 1;" transform="translate(364.17760610609287,0) rotate(-90,-1.9249999999999998,418.5516294838145)">2020-05-20</text></g><g class="xtick"><text text-anchor="end" x="-1.9249999999999998" y="424.0516294838145" style="font-family: sans-serif; font-size: 11px; fill: rgb(0, 0, 0); fill-opacity: 1; white-space: pre; opacity: 1;" transform="translate(407.0276061060929,0) rotate(-90,-1.9249999999999998,418.5516294838145)">2020-06-04</text></g><g class="xtick"><text text-anchor="end" x="-1.9249999999999998" y="424.0516294838145" style="font-family: sans-serif; font-size: 11px; fill: rgb(0, 0, 0); fill-opacity: 1; white-space: pre; opacity: 1;" transform="translate(449.8776061060929,0) rotate(-90,-1.9249999999999998,418.5516294838145)">2020-06-19</text></g><g class="xtick"><text text-anchor="end" x="-1.9249999999999998" y="424.0516294838145" style="font-family: sans-serif; font-size: 11px; fill: rgb(0, 0, 0); fill-opacity: 1; white-space: pre; opacity: 1;" transform="translate(492.72760610609294,0) rotate(-90,-1.9249999999999998,418.5516294838145)">2020-07-04</text></g><g class="xtick"><text text-anchor="end" x="-1.9249999999999998" y="424.0516294838145" style="font-family: sans-serif; font-size: 11px; fill: rgb(0, 0, 0); fill-opacity: 1; white-space: pre; opacity: 1;" transform="translate(535.567606106093,0) rotate(-90,-1.9249999999999998,418.5516294838145)">2020-07-19</text></g><g class="xtick"><text text-anchor="end" x="-1.9249999999999998" y="424.0516294838145" style="font-family: sans-serif; font-size: 11px; fill: rgb(0, 0, 0); fill-opacity: 1; white-space: pre; opacity: 1;" transform="translate(578.4176061060929,0) rotate(-90,-1.9249999999999998,418.5516294838145)">2020-08-03</text></g><g class="xtick"><text text-anchor="end" x="-1.9249999999999998" y="424.0516294838145" style="font-family: sans-serif; font-size: 11px; fill: rgb(0, 0, 0); fill-opacity: 1; white-space: pre; opacity: 1;" transform="translate(621.2676061060929,0) rotate(-90,-1.9249999999999998,418.5516294838145)">2020-08-18</text></g><g class="xtick"><text text-anchor="end" x="-1.9249999999999998" y="424.0516294838145" style="font-family: sans-serif; font-size: 11px; fill: rgb(0, 0, 0); fill-opacity: 1; white-space: pre; opacity: 1;" transform="translate(664.1176061060929,0) rotate(-90,-1.9249999999999998,418.5516294838145)">2020-09-02</text></g></g><g class="yaxislayer-above"><path class="ytick ticks crisp" d="M106.08760610609292,0h-5" transform="translate(0,356.6028149606299)" style="stroke: rgb(0, 0, 0); stroke-opacity: 1; stroke-width: 1px;"/><path class="ytick ticks crisp" d="M106.08760610609292,0h-5" transform="translate(0,304.7328149606299)" style="stroke: rgb(0, 0, 0); stroke-opacity: 1; stroke-width: 1px;"/><path class="ytick ticks crisp" d="M106.08760610609292,0h-5" transform="translate(0,252.87281496062997)" style="stroke: rgb(0, 0, 0); stroke-opacity: 1; stroke-width: 1px;"/><path class="ytick ticks crisp" d="M106.08760610609292,0h-5" transform="translate(0,201.00281496062996)" style="stroke: rgb(0, 0, 0); stroke-opacity: 1; stroke-width: 1px;"/><path class="ytick ticks crisp" d="M106.08760610609292,0h-5" transform="translate(0,149.14281496062995)" style="stroke: rgb(0, 0, 0); stroke-opacity: 1; stroke-width: 1px;"/><path class="ytick ticks crisp" d="M106.08760610609292,0h-5" transform="translate(0,97.27281496062994)" style="stroke: rgb(0, 0, 0); stroke-opacity: 1; stroke-width: 1px;"/><path class="ytick ticks crisp" d="M106.08760610609292,0h-5" transform="translate(0,45.412814960629944)" style="stroke: rgb(0, 0, 0); stroke-opacity: 1; stroke-width: 1px;"/><g class="ytick"><text text-anchor="end" x="98.88760610609292" y="3.8499999999999996" transform="translate(0,356.6028149606299)" style="font-family: sans-serif; font-size: 11px; fill: rgb(0, 0, 0); fill-opacity: 1; white-space: pre; opacity: 1;">500</text></g><g class="ytick"><text text-anchor="end" x="98.88760610609292" y="3.8499999999999996" style="font-family: sans-serif; font-size: 11px; fill: rgb(0, 0, 0); fill-opacity: 1; white-space: pre; opacity: 1;" transform="translate(0,304.7328149606299)">1000</text></g><g class="ytick"><text text-anchor="end" x="98.88760610609292" y="3.8499999999999996" style="font-family: sans-serif; font-size: 11px; fill: rgb(0, 0, 0); fill-opacity: 1; white-space: pre; opacity: 1;" transform="translate(0,252.87281496062997)">1500</text></g><g class="ytick"><text text-anchor="end" x="98.88760610609292" y="3.8499999999999996" style="font-family: sans-serif; font-size: 11px; fill: rgb(0, 0, 0); fill-opacity: 1; white-space: pre; opacity: 1;" transform="translate(0,201.00281496062996)">2000</text></g><g class="ytick"><text text-anchor="end" x="98.88760610609292" y="3.8499999999999996" style="font-family: sans-serif; font-size: 11px; fill: rgb(0, 0, 0); fill-opacity: 1; white-space: pre; opacity: 1;" transform="translate(0,149.14281496062995)">2500</text></g><g class="ytick"><text text-anchor="end" x="98.88760610609292" y="3.8499999999999996" style="font-family: sans-serif; font-size: 11px; fill: rgb(0, 0, 0); fill-opacity: 1; white-space: pre; opacity: 1;" transform="translate(0,97.27281496062994)">3000</text></g><g class="ytick"><text text-anchor="end" x="98.88760610609292" y="3.8499999999999996" style="font-family: sans-serif; font-size: 11px; fill: rgb(0, 0, 0); fill-opacity: 1; white-space: pre; opacity: 1;" transform="translate(0,45.412814960629944)">3500</text></g></g><g class="overaxes-above"/></g></g><g class="polarlayer"/><g class="smithlayer"/><g class="ternarylayer"/><g class="geolayer"/><g class="funnelarealayer"/><g class="pielayer"/><g class="iciclelayer"/><g class="treemaplayer"/><g class="sunburstlayer"/><g class="glimages"/><defs id="topdefs-656713"><g class="clips"/><clipPath id="legend656713"><rect width="159" height="86" x="1" y="1"/></clipPath></defs><g class="layer-above"><g class="imagelayer"/><g class="shapelayer"/></g><g class="infolayer"><g class="legend" pointer-events="all" transform="translate(0,354.21999999999997)"><rect class="bg" shape-rendering="crispEdges" style="stroke: rgb(0, 0, 0); stroke-opacity: 1; fill: rgb(255, 255, 255); fill-opacity: 1; stroke-width: 1px;" width="160" height="87" x="0.5" y="0.5"/><g class="scrollbox" transform="" clip-path="url(#legend656713)"><g class="groups"><g class="traces" transform="translate(1,15.5)" style="opacity: 1;"><text class="legendtext" text-anchor="start" x="40" y="4.29" style="font-family: sans-serif; font-size: 11px; fill: rgb(0, 0, 0); fill-opacity: 1; white-space: pre;">Daily infected</text><g class="layers" style="opacity: 1;"><g class="legendfill"/><g class="legendlines"><path class="js-line" d="M5,0h30" style="fill: none; stroke: rgb(255, 0, 0); stroke-opacity: 1; stroke-width: 2px;"/></g><g class="legendsymbols"><g class="legendpoints"/></g></g><rect class="legendtoggle" x="0" y="-9.5" width="153.125" height="19" style="fill: rgb(0, 0, 0); fill-opacity: 0;"/></g><g class="traces" transform="translate(1,34.5)" style="opacity: 1;"><text class="legendtext" text-anchor="start" x="40" y="4.29" style="font-family: sans-serif; font-size: 11px; fill: rgb(0, 0, 0); fill-opacity: 1; white-space: pre;">MLP forecast</text><g class="layers" style="opacity: 1;"><g class="legendfill"/><g class="legendlines"><path class="js-line" d="M5,0h30" style="fill: none; stroke: rgb(0, 128, 0); stroke-opacity: 1; stroke-width: 2px;"/></g><g class="legendsymbols"><g class="legendpoints"/></g></g><rect class="legendtoggle" x="0" y="-9.5" width="153.125" height="19" style="fill: rgb(0, 0, 0); fill-opacity: 0;"/></g><g class="traces" transform="translate(1,53.5)" style="opacity: 1;"><text class="legendtext" text-anchor="start" x="40" y="4.29" style="font-family: sans-serif; font-size: 11px; fill: rgb(0, 0, 0); fill-opacity: 1; white-space: pre;">Mean forecast Itô-SIS </text><g class="layers" style="opacity: 1;"><g class="legendfill"/><g class="legendlines"><path class="js-line" d="M5,0h30" style="fill: none; stroke: rgb(0, 0, 255); stroke-opacity: 1; stroke-width: 2px;"/></g><g class="legendsymbols"><g class="legendpoints"/></g></g><rect class="legendtoggle" x="0" y="-9.5" width="153.125" height="19" style="fill: rgb(0, 0, 0); fill-opacity: 0;"/></g><g class="traces" transform="translate(1,72.5)" style="opacity: 1;"><text class="legendtext" text-anchor="start" x="40" y="4.29" style="font-family: sans-serif; font-size: 11px; fill: rgb(0, 0, 0); fill-opacity: 1; white-space: pre;">Forecast Itô-SIS band  </text><g class="layers"><g class="legendfill"><path class="js-fill" d="M5,-2h30v6h-30z" style="stroke-width: 0; fill: rgb(0, 154, 250); fill-opacity: 0.15;"/></g><g class="legendlines"><path class="js-line" d="M5,-2h30" style="fill: none; stroke: rgb(0, 154, 250); stroke-opacity: 1; stroke-width: 1px;"/></g><g class="legendsymbols"><g class="legendpoints"/></g></g><rect class="legendtoggle" x="0" y="-9.5" width="153.125" height="19" style="fill: rgb(0, 0, 0); fill-opacity: 0;"/></g></g></g><rect class="scrollbar" rx="20" ry="3" width="0" height="0" style="fill: rgb(128, 139, 164); fill-opacity: 1;" x="0" y="0"/></g><g class="g-gtitle"/><g class="g-xtitle"/><g class="g-ytitle"/></g></svg>